<svg xmlns="http://www.w3.org/2000/svg" viewBox="11.81 0.00 207.22 185.82">
  <!-- VSE — Visual Standardization Engine -->
  <g id="role-fill_interlining" data-role="fill_interlining">
    <path d="M 111.07 118.09 L 111.07 133.44 C 111.07 135.28 111.45 154.95 106.14 154.95 C 101.41 154.95 101.20 135.28 101.20 133.44 L 101.20 118.09 Z" style="stroke:#888888;stroke-width:0.5;stroke-dasharray:none;fill:#DDDDDD;opacity:0.5" data-role="fill_interlining"/>
  </g>
  <g id="role-contour_outer" data-role="contour_outer">
    <path d="M 180.37 100.09 L 189.24 100.09 C 189.24 100.09 198.40 100.53 198.40 92.68 C 198.40 84.95 190.24 85.27 190.24 85.27 L 119.14 85.27" style="stroke:#1A1A1A;stroke-width:1.5;stroke-dasharray:none;fill:none;stroke-linecap:square;stroke-linejoin:miter;opacity:1" data-role="contour_outer"/>
    <path d="M 120.37 79.76 L 129.24 79.76 C 129.24 79.76 138.40 80.19 138.40 72.35 C 138.40 64.62 130.24 64.94 130.24 64.94 L 35.14 64.94" style="stroke:#1A1A1A;stroke-width:1.5;stroke-dasharray:none;fill:none;stroke-linecap:square;stroke-linejoin:miter;opacity:1" data-role="contour_outer"/>
    <path d="M 119.47 100.09 L 189.57 100.09" style="stroke:#1A1A1A;stroke-width:1.5;stroke-dasharray:none;fill:none;stroke-linecap:square;stroke-linejoin:miter;opacity:1" data-role="contour_outer"/>
    <path d="M 120.04 65.21 L 120.04 103.33 L 128.00 103.33 C 128.00 103.33 139.17 101.81 139.17 117.41 C 139.17 129.64 128.00 129.63 128.00 129.63 L 87.35 129.63 C 87.35 129.63 72.66 130.13 72.66 124.60 C 72.66 121.28 86.04 121.39 86.04 121.39 L 95.97 121.39 L 95.97 115.29" style="stroke:#1A1A1A;stroke-width:1.5;stroke-dasharray:none;fill:none;stroke-linecap:square;stroke-linejoin:miter;opacity:1" data-role="contour_outer"/>
    <path d="M 198.40 92.68 L 198.13 31.72" style="stroke:#1A1A1A;stroke-width:1.5;stroke-dasharray:none;fill:none;stroke-linecap:square;stroke-linejoin:miter;opacity:1" data-role="contour_outer"/>
    <path d="M 139.17 117.41 L 139.17 100.33" style="stroke:#1A1A1A;stroke-width:1.5;stroke-dasharray:none;fill:none;stroke-linecap:square;stroke-linejoin:miter;opacity:1" data-role="contour_outer"/>
    <path d="M 72.66 126.14 L 72.66 117.41" style="stroke:#1A1A1A;stroke-width:1.5;stroke-dasharray:none;fill:none;stroke-linecap:square;stroke-linejoin:miter;opacity:1" data-role="contour_outer"/>
    <path d="M 138.40 72.91 L 138.40 31.91" style="stroke:#1A1A1A;stroke-width:1.5;stroke-dasharray:none;fill:none;stroke-linecap:square;stroke-linejoin:miter;opacity:1" data-role="contour_outer"/>
    <path d="M 96.55 117.41 L 35.39 117.41" style="stroke:#1A1A1A;stroke-width:1.5;stroke-dasharray:none;fill:none;stroke-linecap:square;stroke-linejoin:miter;opacity:1" data-role="contour_outer"/>
    <path d="M 119.47 105.39 L 129.49 105.39 C 129.49 105.39 136.05 106.25 136.16 112.44 C 136.25 116.92 130.49 117.41 130.49 117.41 L 35.39 117.41" style="stroke:#1A1A1A;stroke-width:1.5;stroke-dasharray:none;fill:none;stroke-linecap:square;stroke-linejoin:miter;opacity:1" data-role="contour_outer"/>
    <path d="M 120.05 106.21 L 120.05 95.73" style="stroke:#1A1A1A;stroke-width:1.5;stroke-dasharray:none;fill:none;stroke-linecap:square;stroke-linejoin:miter;opacity:1" data-role="contour_outer"/>
  </g>
  <g id="role-boundary_fragment" data-role="boundary_fragment">
    <path d="M 197.17 92.50 L 120.99 92.50" style="stroke:#27A6DE;stroke-width:1.5;stroke-dasharray:none;fill:none;stroke-linecap:butt;opacity:1" data-role="boundary_fragment"/>
    <path d="M 120.99 77.46 L 129.99 77.46 C 129.99 77.46 135.92 77.01 135.92 72.39 C 135.92 67.84 130.43 67.08 130.43 67.08 L 35.40 67.08" style="stroke:#27A6DE;stroke-width:1.5;stroke-dasharray:none;fill:none;stroke-linecap:butt;opacity:1" data-role="boundary_fragment"/>
    <path d="M 119.14 107.97 L 129.99 107.97 C 129.99 107.97 134.56 107.82 134.56 112.44 C 134.56 115.12 127.31 115.29 127.31 115.29 L 35.40 115.29" style="stroke:#27A6DE;stroke-width:1.5;stroke-dasharray:none;fill:none;stroke-linecap:butt;opacity:1" data-role="boundary_fragment"/>
  </g>
  <g id="role-stitch_edge" data-role="stitch_edge">
    <path d="M 131.80 56.69 L 131.80 53.75" style="stroke:#C8102E;stroke-width:0.75;stroke-dasharray:none;fill:none;stroke-linecap:round;opacity:1" data-role="stitch_edge"/>
    <path d="M 131.80 36.60 L 131.80 33.66" style="stroke:#C8102E;stroke-width:0.75;stroke-dasharray:none;fill:none;stroke-linecap:round;opacity:1" data-role="stitch_edge"/>
    <path d="M 192.92 68.03 L 192.92 65.08" style="stroke:#C8102E;stroke-width:0.75;stroke-dasharray:none;fill:none;stroke-linecap:round;opacity:1" data-role="stitch_edge"/>
    <path d="M 192.92 34.94 L 192.92 31.99" style="stroke:#C8102E;stroke-width:0.75;stroke-dasharray:none;fill:none;stroke-linecap:round;opacity:1" data-role="stitch_edge"/>
    <path d="M 77.68 54.80 L 77.68 51.86" style="stroke:#C8102E;stroke-width:0.75;stroke-dasharray:none;fill:none;stroke-linecap:round;opacity:1" data-role="stitch_edge"/>
    <path d="M 77.68 34.71 L 77.68 31.77" style="stroke:#C8102E;stroke-width:0.75;stroke-dasharray:none;fill:none;stroke-linecap:round;opacity:1" data-role="stitch_edge"/>
    <path d="M 192.92 74.50 L 192.92 105.16" style="stroke:#C8102E;stroke-width:0.75;stroke-dasharray:none;fill:none;stroke-linecap:round;opacity:1" data-role="stitch_edge"/>
    <path d="M 74.56 104.06 L 74.56 101.11" style="stroke:#C8102E;stroke-width:0.75;stroke-dasharray:none;fill:none;stroke-linecap:round;opacity:1" data-role="stitch_edge"/>
    <path d="M 74.56 72.53 L 74.56 69.59" style="stroke:#C8102E;stroke-width:0.75;stroke-dasharray:none;fill:none;stroke-linecap:round;opacity:1" data-role="stitch_edge"/>
    <path d="M 131.80 60.16 L 131.80 133.89" style="stroke:#C8102E;stroke-width:0.75;stroke-dasharray:none;fill:none;stroke-linecap:round;opacity:1" data-role="stitch_edge"/>
    <path d="M 134.55 70.00 L 134.55 113.90" style="stroke:#C8102E;stroke-width:0.75;stroke-dasharray:none;fill:none;stroke-linecap:round;opacity:1" data-role="stitch_edge"/>
    <path d="M 74.56 105.89 L 74.56 125.56" style="stroke:#C8102E;stroke-width:0.75;stroke-dasharray:none;fill:none;stroke-linecap:round;opacity:1" data-role="stitch_edge"/>
    <path d="M 77.71 60.27 L 77.71 133.56" style="stroke:#C8102E;stroke-width:0.75;stroke-dasharray:none;fill:none;stroke-linecap:round;opacity:1" data-role="stitch_edge"/>
    <path d="M 172.56 74.50 L 172.56 105.16" style="stroke:#C8102E;stroke-width:0.75;stroke-dasharray:none;fill:none;stroke-linecap:round;opacity:1" data-role="stitch_edge"/>
    <path d="M 149.17 74.50 L 149.17 105.16" style="stroke:#C8102E;stroke-width:0.75;stroke-dasharray:none;fill:none;stroke-linecap:round;opacity:1" data-role="stitch_edge"/>
    <path d="M 172.56 68.03 L 172.56 65.08" style="stroke:#C8102E;stroke-width:0.75;stroke-dasharray:none;fill:none;stroke-linecap:round;opacity:1" data-role="stitch_edge"/>
    <path d="M 172.56 34.94 L 172.56 31.99" style="stroke:#C8102E;stroke-width:0.75;stroke-dasharray:none;fill:none;stroke-linecap:round;opacity:1" data-role="stitch_edge"/>
    <path d="M 149.17 68.03 L 149.17 65.08" style="stroke:#C8102E;stroke-width:0.75;stroke-dasharray:none;fill:none;stroke-linecap:round;opacity:1" data-role="stitch_edge"/>
    <path d="M 149.17 34.94 L 149.17 31.99" style="stroke:#C8102E;stroke-width:0.75;stroke-dasharray:none;fill:none;stroke-linecap:round;opacity:1" data-role="stitch_edge"/>
  </g>
  <g id="role-stitch_thru" data-role="stitch_thru">
    <path d="M 131.80 48.03 L 131.80 39.46" style="stroke:#C8102E;stroke-width:0.75;stroke-dasharray:3 1.5;fill:none;stroke-linecap:round;opacity:1" data-role="stitch_thru"/>
    <path d="M 192.92 59.05 L 192.92 37.95" style="stroke:#C8102E;stroke-width:0.75;stroke-dasharray:3 1.5;fill:none;stroke-linecap:round;opacity:1" data-role="stitch_thru"/>
    <path d="M 77.68 46.14 L 77.68 37.57" style="stroke:#C8102E;stroke-width:0.75;stroke-dasharray:3 1.5;fill:none;stroke-linecap:round;opacity:1" data-role="stitch_thru"/>
    <path d="M 74.56 95.40 L 74.56 75.39" style="stroke:#C8102E;stroke-width:0.75;stroke-dasharray:3 1.5;fill:none;stroke-linecap:round;opacity:1" data-role="stitch_thru"/>
    <path d="M 172.56 59.05 L 172.56 37.95" style="stroke:#C8102E;stroke-width:0.75;stroke-dasharray:3 1.5;fill:none;stroke-linecap:round;opacity:1" data-role="stitch_thru"/>
    <path d="M 149.17 59.05 L 149.17 37.95" style="stroke:#C8102E;stroke-width:0.75;stroke-dasharray:3 1.5;fill:none;stroke-linecap:round;opacity:1" data-role="stitch_thru"/>
  </g>
  <g id="role-callout_line" data-role="callout_line">
    <path d="M 167.97 91.95 L 133.92 19.08 L 103.55 67.08" style="stroke:#333333;stroke-width:0.6;stroke-dasharray:none;fill:none;stroke-linecap:butt;opacity:0.9" data-role="callout_line"/>
    <path d="M 58.80 119.31 L 51.23 133.44" style="stroke:#333333;stroke-width:0.6;stroke-dasharray:none;fill:none;stroke-linecap:butt;opacity:0.9" data-role="callout_line"/>
    <path d="M 92.83 158.33 L 104.65 143.32" style="stroke:#333333;stroke-width:0.6;stroke-dasharray:none;fill:none;stroke-linecap:butt;opacity:0.9" data-role="callout_line"/>
  </g>
  <g id="role-break_line" data-role="break_line">
    <path d="M 199.03 31.99 L 35.39 31.99 L 35.39 117.41" style="stroke:#1A1A1A;stroke-width:0.5;stroke-dasharray:none;fill:none;stroke-linecap:round;opacity:1" data-role="break_line"/>
    <path d="M 135.05 19.08 L 88.97 115.29" style="stroke:#1A1A1A;stroke-width:0.5;stroke-dasharray:none;fill:none;stroke-linecap:round;opacity:1" data-role="break_line"/>
  </g>
  <g id="role-label" data-role="label">
    <text x="31.8" y="143.6" font-family="Arial, sans-serif" font-size="10.4" fill="#1A1A1A">Lining</text>
    <text x="122.0" y="18.6" font-family="Arial, sans-serif" font-size="10.0" fill="#1A1A1A">Padding</text>
    <text x="80.7" y="165.8" font-family="Arial, sans-serif" font-size="8.1" fill="#1A1A1A">Cord</text>
  </g>
</svg>