<svg xmlns="http://www.w3.org/2000/svg" viewBox="0.00 0.00 260.14 255.24">
  <!-- VSE — Visual Standardization Engine -->
  <g id="role-contour_outer" data-role="contour_outer">
    <path d="M 215.90 47.88 L 215.90 21.27 L 95.39 21.27 C 78.59 21.27 78.59 31.26 95.39 31.98 L 115.14 31.98 L 115.14 48.70" style="stroke:#1A1A1A;stroke-width:1.5;stroke-dasharray:none;fill:none;stroke-linecap:butt;stroke-linejoin:round;opacity:1" data-role="contour_outer" data-elem-key="0f47dc87dfb33f16" data-group-key="contour_outer|#1a1a1a|none|1.5|false"/>
    <path d="M 82.84 45.12 L 82.84 235.06" style="stroke:#1A1A1A;stroke-width:1.5;stroke-dasharray:none;fill:none;stroke-linecap:butt;stroke-linejoin:round;opacity:1" data-role="contour_outer" data-elem-key="72251efc71a3753a" data-group-key="contour_outer|#1a1a1a|none|1.5|false"/>
    <path d="M 82.84 27.22 L 82.84 35.12" style="stroke:#1A1A1A;stroke-width:1.5;stroke-dasharray:none;fill:none;stroke-linecap:butt;stroke-linejoin:round;opacity:1" data-role="contour_outer" data-elem-key="4af8b182059b21b5" data-group-key="contour_outer|#1a1a1a|none|1.5|false"/>
    <path d="M 240.14 48.53 L 96.00 48.53 C 79.18 48.53 77.93 40.88 96.00 40.88 L 115.23 40.88" style="stroke:#1A1A1A;stroke-width:1.5;stroke-dasharray:none;fill:none;stroke-linecap:butt;stroke-linejoin:round;opacity:1" data-role="contour_outer" data-elem-key="1162256e7f8c1242" data-group-key="contour_outer|#1a1a1a|none|1.5|false"/>
    <path d="M 115.09 35.12 L 14.79 35.13" style="stroke:#1A1A1A;stroke-width:1.5;stroke-dasharray:none;fill:none;stroke-linecap:butt;stroke-linejoin:round;opacity:1" data-role="contour_outer" data-elem-key="3a6e35d9a334c46e" data-group-key="contour_outer|#1a1a1a|none|1.5|false"/>
  </g>
  <g id="role-stitch_edge" data-role="stitch_edge">
    <path d="M 85.34 26.12 L 85.34 44.70" style="stroke:#C8102E;stroke-width:0.75;stroke-dasharray:none;fill:none;stroke-linecap:butt;opacity:1" data-role="stitch_edge" data-elem-key="b79b3bb951c9ca29" data-group-key="stitch_edge|#e02020|none|1.0|false"/>
    <path d="M 87.77 59.41 L 87.77 13.27" style="stroke:#C8102E;stroke-width:0.75;stroke-dasharray:none;fill:none;stroke-linecap:butt;opacity:1" data-role="stitch_edge" data-elem-key="5320011467c273bf" data-group-key="stitch_edge|#e02020|none|1.0|false"/>
    <path d="M 94.93 59.41 L 94.93 13.27" style="stroke:#C8102E;stroke-width:0.75;stroke-dasharray:none;fill:none;stroke-linecap:butt;opacity:1" data-role="stitch_edge" data-elem-key="34b7135dfa2682af" data-group-key="stitch_edge|#e02020|none|1.0|false"/>
    <path d="M 205.86 43.09 C 205.48 45.65 208.04 46.03 213.15 45.31 C 216.24 44.87 218.16 43.70 217.90 42.04 C 217.67 40.58 215.73 40.41 212.64 41.78 C 209.77 43.05 207.41 45.14 206.38 47.00" style="stroke:#C8102E;stroke-width:0.75;stroke-dasharray:none;fill:none;stroke-linecap:butt;opacity:1" data-role="stitch_edge" data-elem-key="3e00b88dff06f396" data-group-key="stitch_edge|#e02020|none|0.5|false"/>
    <path d="M 205.88 37.84 C 205.51 40.41 208.06 40.78 213.17 40.06 C 216.26 39.62 218.18 38.45 217.92 36.79 C 217.69 35.34 215.75 35.17 212.67 36.53 C 208.83 38.23 205.92 41.02 205.84 43.50" style="stroke:#C8102E;stroke-width:0.75;stroke-dasharray:none;fill:none;stroke-linecap:butt;opacity:1" data-role="stitch_edge" data-elem-key="0b50945900c86834" data-group-key="stitch_edge|#e02020|none|0.5|false"/>
    <path d="M 205.91 32.35 C 205.53 34.91 208.08 35.28 213.20 34.57 C 216.29 34.13 218.21 32.96 217.94 31.30 C 217.71 29.84 215.78 29.67 212.69 31.04 C 208.86 32.73 205.94 35.89 205.87 38.00" style="stroke:#C8102E;stroke-width:0.75;stroke-dasharray:none;fill:none;stroke-linecap:butt;opacity:1" data-role="stitch_edge" data-elem-key="0350e1f9183d011e" data-group-key="stitch_edge|#e02020|none|0.5|false"/>
    <path d="M 101.76 36.46 C 101.76 41.24 105.63 45.11 110.40 45.11 C 115.17 45.11 119.04 41.24 119.04 36.46 C 119.04 31.69 115.17 27.82 110.40 27.82 C 105.63 27.82 101.76 31.69 101.76 36.46" style="stroke:#C8102E;stroke-width:0.75;stroke-dasharray:none;fill:none;stroke-linecap:butt;opacity:1" data-role="stitch_edge" data-elem-key="a2b5e910c968d90e" data-group-key="stitch_edge|#e02020|none|1.0|false"/>
    <path d="M 205.08 23.18 C 205.08 27.02 208.19 30.13 212.02 30.13 C 215.86 30.13 218.97 27.02 218.97 23.18 C 218.97 19.35 215.86 16.24 212.02 16.24 C 208.19 16.24 205.08 19.35 205.08 23.18" style="stroke:#C8102E;stroke-width:0.75;stroke-dasharray:none;fill:none;stroke-linecap:butt;opacity:1" data-role="stitch_edge" data-elem-key="9b32208f52de980b" data-group-key="stitch_edge|#e02020|none|1.0|false"/>
    <path d="M 164.86 13.00 L 164.86 55.30" style="stroke:#C8102E;stroke-width:0.75;stroke-dasharray:none;fill:none;stroke-linecap:butt;opacity:1" data-role="stitch_edge" data-elem-key="eff576ebe658617e" data-group-key="stitch_edge|#e02020|none|1.0|false"/>
    <path d="M 172.50 13.00 L 172.50 55.30" style="stroke:#C8102E;stroke-width:0.75;stroke-dasharray:none;fill:none;stroke-linecap:butt;opacity:1" data-role="stitch_edge" data-elem-key="0ad41307196fde52" data-group-key="stitch_edge|#e02020|none|1.0|false"/>
    <path d="M 172.50 59.55 L 172.50 63.05" style="stroke:#C8102E;stroke-width:0.75;stroke-dasharray:none;fill:none;stroke-linecap:butt;opacity:1" data-role="stitch_edge" data-elem-key="dab4c98ee0f42e21" data-group-key="stitch_edge|#e02020|none|1.0|false"/>
    <path d="M 172.50 151.48 L 172.50 154.98 L 169.23 156.24" style="stroke:#C8102E;stroke-width:0.75;stroke-dasharray:none;fill:none;stroke-linecap:butt;opacity:1" data-role="stitch_edge" data-elem-key="ebd620b5062e9491" data-group-key="stitch_edge|#e02020|none|1.0|false"/>
    <path d="M 86.26 188.44 L 83.00 189.71" style="stroke:#C8102E;stroke-width:0.75;stroke-dasharray:none;fill:none;stroke-linecap:butt;opacity:1" data-role="stitch_edge" data-elem-key="7f7e671e940c1588" data-group-key="stitch_edge|#e02020|none|1.0|false"/>
    <path d="M 164.86 59.55 L 164.86 63.05" style="stroke:#C8102E;stroke-width:0.75;stroke-dasharray:none;fill:none;stroke-linecap:butt;opacity:1" data-role="stitch_edge" data-elem-key="a341525df5a8d908" data-group-key="stitch_edge|#e02020|none|1.0|false"/>
    <path d="M 164.86 145.66 L 164.86 149.16 L 161.61 150.47" style="stroke:#C8102E;stroke-width:0.75;stroke-dasharray:none;fill:none;stroke-linecap:butt;opacity:1" data-role="stitch_edge" data-elem-key="d72e7f6ac3201792" data-group-key="stitch_edge|#e02020|none|1.0|false"/>
    <path d="M 85.68 180.94 L 82.43 182.24" style="stroke:#C8102E;stroke-width:0.75;stroke-dasharray:none;fill:none;stroke-linecap:butt;opacity:1" data-role="stitch_edge" data-elem-key="f7ebe6e437167b21" data-group-key="stitch_edge|#e02020|none|1.0|false"/>
  </g>
  <g id="role-stitch_thru" data-role="stitch_thru">
    <path d="M 87.77 64.21 L 87.77 235.24" style="stroke:#C8102E;stroke-width:0.75;stroke-dasharray:3 1.5;fill:none;stroke-linecap:butt;opacity:1" data-role="stitch_thru" data-elem-key="ed57c8854cdd42f2" data-group-key="boundary_lining|#e02020|none|1.0|true"/>
    <path d="M 94.93 64.21 L 94.93 235.02" style="stroke:#C8102E;stroke-width:0.75;stroke-dasharray:3 1.5;fill:none;stroke-linecap:butt;opacity:1" data-role="stitch_thru" data-elem-key="fbbf3d512800d3d6" data-group-key="boundary_lining|#e02020|none|1.0|true"/>
    <path d="M 164.86 70.56 L 164.86 141.91" style="stroke:#C8102E;stroke-width:0.75;stroke-dasharray:3 1.5;fill:none;stroke-linecap:butt;opacity:1" data-role="stitch_thru" data-elem-key="be76b9a9452e6944" data-group-key="stitch_thru|#e02020|none|1.0|true"/>
    <path d="M 172.50 69.85 L 172.50 148.08" style="stroke:#C8102E;stroke-width:0.75;stroke-dasharray:3 1.5;fill:none;stroke-linecap:butt;opacity:1" data-role="stitch_thru" data-elem-key="ed57c8854cdd42f2" data-group-key="stitch_thru|#e02020|none|1.0|true"/>
    <path d="M 207.18 47.52 L 207.47 29.28" style="stroke:#C8102E;stroke-width:0.75;stroke-dasharray:3 1.5;fill:none;stroke-linecap:butt;opacity:1" data-role="stitch_thru" data-elem-key="3a97981a76a5ab63" data-group-key="stitch_thru|#e02020|none|0.5|true"/>
    <path d="M 216.76 47.00 L 217.05 27.38" style="stroke:#C8102E;stroke-width:0.75;stroke-dasharray:3 1.5;fill:none;stroke-linecap:butt;opacity:1" data-role="stitch_thru" data-elem-key="e2984f58aa0ef350" data-group-key="stitch_thru|#e02020|none|0.5|true"/>
    <path d="M 162.85 158.72 L 89.46 187.20" style="stroke:#C8102E;stroke-width:0.75;stroke-dasharray:3 1.5;fill:none;stroke-linecap:butt;opacity:1" data-role="stitch_thru" data-elem-key="fbbf3d512800d3d6" data-group-key="stitch_thru|#e02020|none|1.0|true"/>
    <path d="M 154.71 153.24 L 89.13 179.56" style="stroke:#C8102E;stroke-width:0.75;stroke-dasharray:3 1.5;fill:none;stroke-linecap:butt;opacity:1" data-role="stitch_thru" data-elem-key="3252b3d4f1f6eeac" data-group-key="stitch_thru|#e02020|none|1.0|true"/>
  </g>
  <g id="role-break_line" data-role="break_line">
    <path d="M 14.79 35.12 L 14.79 235.24 L 240.14 235.24 L 240.14 48.53" style="stroke:#1A1A1A;stroke-width:1.0;stroke-dasharray:none;fill:none;stroke-linecap:round;opacity:1" data-role="break_line" data-elem-key="4f737c286648746f" data-group-key="break_line|#1a1a1a|none|0.75|false"/>
  </g>
  <g id="role-callout_line" data-role="callout_line">
    <path d="M 91.15 179.98 L 157.81 195.52" style="stroke:#333333;stroke-width:0.6;stroke-dasharray:none;fill:none;stroke-linecap:butt;opacity:0.9" data-role="callout_line" data-elem-key="4902867ce6d09721" data-group-key="callout_line|#1a1a1a|none|0.75|false"/>
    <path d="M 164.51 144.12 L 164.51 190.71" style="stroke:#333333;stroke-width:0.6;stroke-dasharray:none;fill:none;stroke-linecap:butt;opacity:0.9" data-role="callout_line" data-elem-key="45b31772f8105c6e" data-group-key="callout_line|#1a1a1a|none|0.75|false"/>
  </g>
  <g id="role-stitch_symbol" data-role="stitch_symbol" data-trace-ignore="1">
    <path d="M 156.41 144.19 L 158.46 148.93 L 160.51 144.19 L 162.55 148.93 L 164.60 144.19 L 166.65 148.93 L 168.70 144.19 L 170.75 148.93 L 172.79 144.19 L 174.84 148.93 L 176.89 144.19" style="stroke:#1A1A1A;stroke-width:0.5;stroke-dasharray:none;fill:none;stroke-linecap:round;stroke-linejoin:round;opacity:1" data-role="stitch_symbol" data-trace-ignore="1"/>
    <path d="M 81.56 181.14 L 84.04 185.82 L 86.51 181.14 L 88.99 185.82 L 91.47 181.14 L 93.94 185.82 L 96.42 181.14 L 98.90 185.82 L 101.37 181.14 L 103.85 185.82 L 106.33 181.14" style="stroke:#1A1A1A;stroke-width:0.5;stroke-dasharray:none;fill:none;stroke-linecap:round;stroke-linejoin:round;opacity:1" data-role="stitch_symbol" data-trace-ignore="1"/>
  </g>
  <g id="role-label" data-role="label" data-trace-ignore="1">
    <text x="161.6" y="204.5" font-family="Arial, sans-serif" font-size="10.1" fill="#1A1A1A">Bt</text>
  </g>
</svg>