<svg xmlns="http://www.w3.org/2000/svg" viewBox="36.60 0.00 291.09 262.90">
  <path d="M 225.09 164.78 L 58.56 164.78" style="stroke:#32a9e0;stroke-width:2.50;fill:none;stroke-linecap:butt;stroke-linejoin:miter;" data-role="boundary_fragment" data-sk="#27a6de|none|2.5|false"/>
  <path d="M 228.10 166.65 L 228.10 17.29" style="stroke:#1c1c1b;stroke-width:1.50;fill:none;stroke-linecap:butt;stroke-linejoin:miter;" data-role="contour_outer" data-sk="#1a1a1a|none|1.5|false"/>
  <path d="M 57.13 168.01 L 73.80 61.84 C 84.46 10.97 144.28 15.39 144.28 15.39 L 197.28 15.39 C 277.28 15.39 281.91 52.96 281.91 52.96 L 303.34 214.73" style="stroke:#1c1c1b;stroke-width:1.00;fill:none;stroke-linecap:butt;stroke-linejoin:miter;" data-role="break_line" data-sk="#1a1a1a|none|1.0|false"/>
  <path d="M 207.44 151.60 L 222.19 151.61 C 229.66 151.62 230.47 144.03 222.21 144.01 L 60.13 144.01" style="stroke:#1c1c1b;stroke-width:1.50;fill:none;stroke-linecap:butt;stroke-linejoin:miter;" data-role="contour_outer" data-sk="#1a1a1a|none|1.5|false"/>
  <path d="M 168.34 171.31 L 156.24 171.30 C 148.83 171.29 148.02 177.05 156.23 177.07 L 219.96 177.07 L 218.96 177.08 C 229.13 177.08 232.69 155.31 219.97 155.31 L 206.97 155.31" style="stroke:#1c1c1b;stroke-width:1.50;fill:none;stroke-linecap:butt;stroke-linejoin:miter;" data-role="contour_outer" data-sk="#1a1a1a|none|1.5|false"/>
  <path d="M 207.44 143.88 L 207.44 157.76" style="stroke:#1c1c1b;stroke-width:1.50;fill:none;stroke-linecap:butt;stroke-linejoin:miter;" data-role="contour_outer" data-sk="#1a1a1a|none|1.5|false"/>
  <path d="M 169.02 167.37 L 169.02 172.13" style="stroke:#1c1c1b;stroke-width:1.50;fill:none;stroke-linecap:butt;stroke-linejoin:miter;" data-role="contour_outer" data-sk="#1a1a1a|none|1.5|false"/>
  <path d="M 150.37 167.34 L 150.37 175.88" style="stroke:#1c1c1b;stroke-width:1.50;fill:none;stroke-linecap:butt;stroke-linejoin:miter;" data-role="contour_outer" data-sk="#1a1a1a|none|1.5|false"/>
  <path d="M 151.22 174.88 L 222.56 174.88" style="stroke:#2eac66;stroke-width:1.50;fill:none;stroke-linecap:butt;stroke-linejoin:miter;" data-role="boundary_interlining" data-sk="#29b473|none|1.5|false"/>
  <path d="M 152.33 221.32 L 223.66 221.32" style="stroke:#2eac66;stroke-width:1.50;fill:none;stroke-linecap:butt;stroke-linejoin:miter;" data-role="boundary_interlining" data-sk="#29b473|none|1.5|false"/>
  <path d="M 206.36 157.63 L 219.36 157.63 C 219.36 157.63 225.86 157.76 226.36 162.13 C 226.78 165.81 219.36 167.47 219.36 167.47 L 56.60 167.57" style="stroke:#1c1c1b;stroke-width:1.50;fill:none;stroke-linecap:butt;stroke-linejoin:miter;" data-role="contour_outer" data-sk="#1a1a1a|none|1.5|false"/>
  <path d="M 224.20 147.11 L 224.19 162.43" style="stroke:#e30c13;stroke-width:1.00;fill:none;stroke-linecap:butt;stroke-linejoin:miter;" data-role="stitch_thru" data-sk="#e02020|none|1.0|false"/>
  <path d="M 153.20 159.08 L 153.20 181.47" style="stroke:#e30c13;stroke-width:1.00;fill:none;stroke-linecap:butt;stroke-linejoin:miter;" data-role="stitch_thru" data-sk="#e02020|none|1.0|false"/>
  <path d="M 220.71 17.98 L 220.71 137.39" style="stroke:#e30c13;stroke-width:1.00;fill:none;stroke-linecap:butt;stroke-linejoin:miter;stroke-dasharray:7 7;" data-role="stitch_thru" data-sk="#e02020|none|1.0|true"/>
  <path d="M 153.20 147.37 L 153.20 154.77" style="stroke:#e30c13;stroke-width:1.00;fill:none;stroke-linecap:butt;stroke-linejoin:miter;stroke-dasharray:7 7;" data-role="stitch_thru" data-sk="#e02020|none|1.0|true"/>
  <path d="M 220.97 139.90 L 220.96 180.19" style="stroke:#e30c13;stroke-width:1.00;fill:none;stroke-linecap:butt;stroke-linejoin:miter;" data-role="stitch_edge" data-sk="#e02020|none|1.0|false"/>
  <path d="M 88.54 172.96 L 94.19 167.70" style="stroke:#1c1c1b;stroke-width:0.75;fill:none;stroke-linecap:butt;stroke-linejoin:miter;" data-role="callout_line" data-sk="#1a1a1a|none|0.75|false"/>
  <path d="M 124.36 172.55 L 131.01 165.29" style="stroke:#1c1c1b;stroke-width:0.75;fill:none;stroke-linecap:butt;stroke-linejoin:miter;" data-role="callout_line" data-sk="#1a1a1a|none|0.75|false"/>
  <path d="M 150.16 211.30 L 301.69 211.30" style="stroke:#32a9e0;stroke-width:2.50;fill:none;stroke-linecap:butt;stroke-linejoin:miter;" data-role="boundary_fragment" data-sk="#27a6de|none|2.5|false"/>
  <path d="M 147.15 213.18 L 147.15 167.81" style="stroke:#1c1c1b;stroke-width:1.50;fill:none;stroke-linecap:butt;stroke-linejoin:miter;" data-role="contour_outer" data-sk="#1a1a1a|none|1.5|false"/>
  <path d="M 167.81 198.12 L 153.05 198.13 C 145.59 198.14 144.78 190.55 153.04 190.53 L 300.12 190.53" style="stroke:#1c1c1b;stroke-width:1.50;fill:none;stroke-linecap:butt;stroke-linejoin:miter;" data-role="contour_outer" data-sk="#1a1a1a|none|1.5|false"/>
  <path d="M 206.91 217.84 L 219.01 217.83 C 226.42 217.82 227.22 223.57 219.02 223.60 L 155.29 223.60 L 156.29 223.61 C 146.11 223.61 142.56 201.84 155.28 201.84 L 168.28 201.84" style="stroke:#1c1c1b;stroke-width:1.50;fill:none;stroke-linecap:butt;stroke-linejoin:miter;" data-role="contour_outer" data-sk="#1a1a1a|none|1.5|false"/>
  <path d="M 167.81 190.40 L 167.81 204.29" style="stroke:#1c1c1b;stroke-width:1.50;fill:none;stroke-linecap:butt;stroke-linejoin:miter;" data-role="contour_outer" data-sk="#1a1a1a|none|1.5|false"/>
  <path d="M 206.23 213.89 L 206.23 218.65" style="stroke:#1c1c1b;stroke-width:1.50;fill:none;stroke-linecap:butt;stroke-linejoin:miter;" data-role="contour_outer" data-sk="#1a1a1a|none|1.5|false"/>
  <path d="M 224.87 213.87 L 224.87 222.41" style="stroke:#1c1c1b;stroke-width:1.50;fill:none;stroke-linecap:butt;stroke-linejoin:miter;" data-role="contour_outer" data-sk="#1a1a1a|none|1.5|false"/>
  <path d="M 168.89 204.16 L 155.89 204.16 C 155.89 204.16 149.38 204.28 148.89 208.65 C 148.47 212.34 155.89 213.99 155.89 213.99 L 303.64 214.09" style="stroke:#1c1c1b;stroke-width:1.50;fill:none;stroke-linecap:butt;stroke-linejoin:miter;" data-role="contour_outer" data-sk="#1a1a1a|none|1.5|false"/>
  <path d="M 151.05 193.63 L 151.06 208.96" style="stroke:#e30c13;stroke-width:1.00;fill:none;stroke-linecap:butt;stroke-linejoin:miter;" data-role="stitch_edge" data-sk="#e02020|none|1.0|false"/>
  <path d="M 222.04 205.60 L 222.05 228.00" style="stroke:#e30c13;stroke-width:1.00;fill:none;stroke-linecap:butt;stroke-linejoin:miter;" data-role="stitch_thru" data-sk="#e02020|none|1.0|false"/>
  <path d="M 222.04 193.89 L 222.04 201.29" style="stroke:#e30c13;stroke-width:1.00;fill:none;stroke-linecap:butt;stroke-linejoin:miter;stroke-dasharray:7 7;" data-role="stitch_thru" data-sk="#e02020|none|1.0|true"/>
  <path d="M 155.28 186.43 L 155.29 226.71" style="stroke:#e30c13;stroke-width:1.00;fill:none;stroke-linecap:butt;stroke-linejoin:miter;" data-role="stitch_edge" data-sk="#e02020|none|1.0|false"/>
  <path d="M 275.06 213.78 L 280.32 220.17" style="stroke:#1c1c1b;stroke-width:0.75;fill:none;stroke-linecap:butt;stroke-linejoin:miter;" data-role="callout_line" data-sk="#1a1a1a|none|0.75|false"/>
  <path d="M 183.36 221.41 L 185.99 231.23" style="stroke:#1c1c1b;stroke-width:0.75;fill:none;stroke-linecap:butt;stroke-linejoin:miter;" data-role="callout_line" data-sk="#1a1a1a|none|0.75|false"/>
  <path d="M 203.32 174.58 L 185.99 231.23" style="stroke:#1c1c1b;stroke-width:0.75;fill:none;stroke-linecap:butt;stroke-linejoin:miter;" data-role="callout_line" data-sk="#1a1a1a|none|0.75|false"/>
  <path d="M 234.74 211.24 L 242.39 220.04" style="stroke:#1c1c1b;stroke-width:0.75;fill:none;stroke-linecap:butt;stroke-linejoin:miter;" data-role="callout_line" data-sk="#1a1a1a|none|0.75|false"/>
  <text x="167.9" y="242.9" font-family="Arial,sans-serif" font-size="10.0" fill="#222">Interlining</text>
  <text x="61.4" y="183.2" font-family="Arial,sans-serif" font-size="10.0" fill="#222">Lining</text>
  <text x="99.1" y="183.2" font-family="Arial,sans-serif" font-size="10.0" fill="#222">Padding</text>
  <text x="79.1" y="118.3" font-family="Arial,sans-serif" font-size="10.0" fill="#222">Right front</text>
  <text x="249.4" y="158.6" font-family="Arial,sans-serif" font-size="10.0" fill="#222">Left front</text>
  <text x="281.0" y="229.3" font-family="Arial,sans-serif" font-size="10.0" fill="#222">Lining</text>
  <text x="234.8" y="229.3" font-family="Arial,sans-serif" font-size="10.0" fill="#222">Padding</text>
</svg>