<svg xmlns="http://www.w3.org/2000/svg" viewBox="3.62 5.10 354.33 230.26">
  <!-- VSE — Visual Standardization Engine -->
  <g id="role-boundary_fragment" data-role="boundary_fragment">
    <path d="M 23.62 147.81 L 155.27 147.81" style="stroke:#27A6DE;stroke-width:1.5;stroke-dasharray:none;fill:none;stroke-linecap:butt;opacity:1" data-role="boundary_fragment"/>
  </g>
  <g id="role-contour_outer" data-role="contour_outer">
    <path d="M 160.12 143.71 L 160.12 134.21" style="stroke:#1A1A1A;stroke-width:1.5;stroke-dasharray:none;fill:none;stroke-linecap:butt;stroke-linejoin:round;opacity:1" data-role="contour_outer"/>
    <path d="M 205.20 144.41 L 205.20 134.33" style="stroke:#1A1A1A;stroke-width:1.5;stroke-dasharray:none;fill:none;stroke-linecap:butt;stroke-linejoin:round;opacity:1" data-role="contour_outer"/>
    <path d="M 136.10 137.08 L 136.10 25.47" style="stroke:#1A1A1A;stroke-width:1.5;stroke-dasharray:none;fill:none;stroke-linecap:butt;stroke-linejoin:round;opacity:1" data-role="contour_outer"/>
    <path d="M 201.36 148.62 L 201.36 25.37" style="stroke:#1A1A1A;stroke-width:1.5;stroke-dasharray:none;fill:none;stroke-linecap:butt;stroke-linejoin:round;opacity:1" data-role="contour_outer"/>
    <path d="M 164.24 146.35 L 164.24 25.10" style="stroke:#1A1A1A;stroke-width:1.5;stroke-dasharray:none;fill:none;stroke-linecap:butt;stroke-linejoin:round;opacity:1" data-role="contour_outer"/>
    <path d="M 337.95 143.70 L 205.20 143.71" style="stroke:#1A1A1A;stroke-width:1.5;stroke-dasharray:none;fill:none;stroke-linecap:butt;stroke-linejoin:round;opacity:1" data-role="contour_outer"/>
    <path d="M 160.88 143.70 L 23.62 143.70" style="stroke:#1A1A1A;stroke-width:1.5;stroke-dasharray:none;fill:none;stroke-linecap:butt;stroke-linejoin:round;opacity:1" data-role="contour_outer"/>
    <path d="M 157.04 132.50 L 145.64 132.50 C 134.43 132.37 131.50 139.67 145.64 139.67 L 157.42 139.67 L 157.42 132.98" style="stroke:#1A1A1A;stroke-width:1.5;stroke-dasharray:none;fill:none;stroke-linecap:butt;stroke-linejoin:round;opacity:1" data-role="contour_outer"/>
    <path d="M 211.80 154.00 L 219.13 153.92 C 230.86 153.81 232.50 160.63 219.71 161.42 L 209.55 161.42" style="stroke:#1A1A1A;stroke-width:1.5;stroke-dasharray:none;fill:none;stroke-linecap:butt;stroke-linejoin:round;opacity:1" data-role="contour_outer"/>
    <path d="M 155.71 154.77 L 146.22 154.77 C 134.70 154.66 131.65 162.24 146.19 162.24 L 156.07 162.24" style="stroke:#1A1A1A;stroke-width:1.5;stroke-dasharray:none;fill:none;stroke-linecap:butt;stroke-linejoin:round;opacity:1" data-role="contour_outer"/>
    <path d="M 155.72 162.22 C 161.33 161.39 164.24 153.90 164.24 145.67 C 164.24 133.22 156.72 132.48 156.72 132.48" style="stroke:#1A1A1A;stroke-width:1.5;stroke-dasharray:none;fill:none;stroke-linecap:butt;stroke-linejoin:round;opacity:1" data-role="contour_outer"/>
    <path d="M 134.33 163.96 L 140.81 163.96 C 147.19 163.89 148.86 167.93 140.81 167.93 L 134.11 167.93 L 134.11 164.23" style="stroke:#1A1A1A;stroke-width:1.5;stroke-dasharray:none;fill:none;stroke-linecap:butt;stroke-linejoin:round;opacity:1" data-role="contour_outer"/>
    <path d="M 134.88 180.45 L 140.50 180.45 C 148.77 180.45 147.03 176.25 140.48 176.31 L 135.08 176.31 L 135.08 167.93" style="stroke:#1A1A1A;stroke-width:1.5;stroke-dasharray:none;fill:none;stroke-linecap:butt;stroke-linejoin:round;opacity:1" data-role="contour_outer"/>
    <path d="M 135.08 180.44 C 131.88 179.98 130.23 175.83 130.23 171.26 C 130.23 164.36 134.51 163.95 134.51 163.95" style="stroke:#1A1A1A;stroke-width:1.5;stroke-dasharray:none;fill:none;stroke-linecap:butt;stroke-linejoin:round;opacity:1" data-role="contour_outer"/>
    <path d="M 228.90 136.08 L 228.84 25.47" style="stroke:#1A1A1A;stroke-width:1.5;stroke-dasharray:none;fill:none;stroke-linecap:butt;stroke-linejoin:round;opacity:1" data-role="contour_outer"/>
    <path d="M 210.33 132.73 C 211.47 132.48 208.54 132.48 208.54 132.48 L 219.42 132.48 C 231.44 132.73 232.66 139.68 219.42 139.68 L 208.16 139.68 L 208.16 132.97" style="stroke:#1A1A1A;stroke-width:1.5;stroke-dasharray:none;fill:none;stroke-linecap:butt;stroke-linejoin:round;opacity:1" data-role="contour_outer"/>
    <path d="M 209.80 161.42 C 209.80 161.42 200.94 157.44 201.36 145.60 C 201.77 134.39 205.92 133.14 208.53 132.48" style="stroke:#1A1A1A;stroke-width:1.5;stroke-dasharray:none;fill:none;stroke-linecap:butt;stroke-linejoin:round;opacity:1" data-role="contour_outer"/>
    <path d="M 212.39 154.00 L 212.39 143.79" style="stroke:#1A1A1A;stroke-width:1.5;stroke-dasharray:none;fill:none;stroke-linecap:butt;stroke-linejoin:round;opacity:1" data-role="contour_outer"/>
    <path d="M 228.63 157.50 L 228.63 144.24" style="stroke:#1A1A1A;stroke-width:1.5;stroke-dasharray:none;fill:none;stroke-linecap:butt;stroke-linejoin:round;opacity:1" data-role="contour_outer"/>
    <path d="M 155.59 155.43 L 155.52 143.84" style="stroke:#1A1A1A;stroke-width:1.5;stroke-dasharray:none;fill:none;stroke-linecap:butt;stroke-linejoin:round;opacity:1" data-role="contour_outer"/>
    <path d="M 218.00 178.69 L 218.00 174.68" style="stroke:#1A1A1A;stroke-width:1.5;stroke-dasharray:none;fill:none;stroke-linecap:butt;stroke-linejoin:round;opacity:1" data-role="contour_outer"/>
    <path d="M 218.00 166.14 L 218.00 162.02" style="stroke:#1A1A1A;stroke-width:1.5;stroke-dasharray:none;fill:none;stroke-linecap:butt;stroke-linejoin:round;opacity:1" data-role="contour_outer"/>
    <path d="M 146.24 166.13 L 146.24 162.01" style="stroke:#1A1A1A;stroke-width:1.5;stroke-dasharray:none;fill:none;stroke-linecap:butt;stroke-linejoin:round;opacity:1" data-role="contour_outer"/>
    <path d="M 146.07 178.69 L 146.07 174.56" style="stroke:#1A1A1A;stroke-width:1.5;stroke-dasharray:none;fill:none;stroke-linecap:butt;stroke-linejoin:round;opacity:1" data-role="contour_outer"/>
    <path d="M 135.53 169.94 L 135.53 174.77 L 227.91 174.59 L 227.91 169.57" style="stroke:#1A1A1A;stroke-width:1.5;stroke-dasharray:none;fill:none;stroke-linecap:butt;stroke-linejoin:round;opacity:1" data-role="contour_outer"/>
  </g>
  <g id="role-hw_zipper_tape" data-role="hw_zipper_tape">
    <path d="M 174.18 171.77 H 190.49 V 178.92 H 174.18 Z Z" style="stroke:none;stroke-width:0;stroke-dasharray:none;fill:#1A1A1A;opacity:1" data-role="hw_zipper_tape"/>
  </g>
  <g id="role-fill_interlining" data-role="fill_interlining">
    <path d="M 169.23 204.58 L 182.33 175.35 Z" style="stroke:#888888;stroke-width:0.5;stroke-dasharray:none;fill:#DDDDDD;opacity:0.5" data-role="fill_interlining"/>
  </g>
  <g id="role-contour_outer" data-role="contour_outer">
    <path d="M 233.84 172.88 L 233.84 143.98" style="stroke:#1A1A1A;stroke-width:1.5;stroke-dasharray:none;fill:none;stroke-linecap:butt;stroke-linejoin:round;opacity:1" data-role="contour_outer"/>
    <path d="M 130.30 172.32 L 130.31 151.29" style="stroke:#1A1A1A;stroke-width:1.5;stroke-dasharray:none;fill:none;stroke-linecap:butt;stroke-linejoin:round;opacity:1" data-role="contour_outer"/>
  </g>
  <g id="role-stitch_edge" data-role="stitch_edge">
    <path d="M 143.80 162.58 L 143.80 184.99" style="stroke:#C8102E;stroke-width:0.75;stroke-dasharray:none;fill:none;stroke-linecap:butt;opacity:1" data-role="stitch_edge"/>
  </g>
  <g id="role-hw_zipper_tape" data-role="hw_zipper_tape">
    <path d="M 184.01 177.47 L 184.01 25.84" style="stroke:#1A1A1A;stroke-width:7.40;stroke-dasharray:2.776;fill:none;stroke-linecap:butt;opacity:1" data-role="hw_zipper_tape"/>
    <path d="M 180.97 174.81 L 180.97 25.54" style="stroke:#1A1A1A;stroke-width:7.40;stroke-dasharray:2.776;fill:none;stroke-linecap:butt;opacity:1" data-role="hw_zipper_tape"/>
  </g>
  <g id="role-stitch_edge" data-role="stitch_edge">
    <path d="M 141.35 162.58 L 141.35 184.99" style="stroke:#C8102E;stroke-width:0.75;stroke-dasharray:none;fill:none;stroke-linecap:butt;opacity:1" data-role="stitch_edge"/>
    <path d="M 223.76 127.15 L 223.76 162.58" style="stroke:#C8102E;stroke-width:0.75;stroke-dasharray:none;fill:none;stroke-linecap:butt;opacity:1" data-role="stitch_edge"/>
  </g>
  <g id="role-contour_outer" data-role="contour_outer">
    <path d="M 229.74 164.07 L 223.26 164.07 C 216.88 164.00 215.21 168.05 223.26 168.05 L 229.96 168.05 L 229.96 164.34" style="stroke:#1A1A1A;stroke-width:1.5;stroke-dasharray:none;fill:none;stroke-linecap:butt;stroke-linejoin:round;opacity:1" data-role="contour_outer"/>
    <path d="M 229.19 180.57 L 223.57 180.57 C 215.30 180.57 217.04 176.36 223.59 176.43 L 228.99 176.43 L 228.99 168.05" style="stroke:#1A1A1A;stroke-width:1.5;stroke-dasharray:none;fill:none;stroke-linecap:butt;stroke-linejoin:round;opacity:1" data-role="contour_outer"/>
    <path d="M 228.99 180.55 C 232.18 180.10 233.84 175.94 233.84 171.38 C 233.84 164.47 229.56 164.07 229.56 164.07" style="stroke:#1A1A1A;stroke-width:1.5;stroke-dasharray:none;fill:none;stroke-linecap:butt;stroke-linejoin:round;opacity:1" data-role="contour_outer"/>
  </g>
  <g id="role-stitch_edge" data-role="stitch_edge">
    <path d="M 221.00 161.11 L 220.99 184.99" style="stroke:#C8102E;stroke-width:0.75;stroke-dasharray:none;fill:none;stroke-linecap:butt;opacity:1" data-role="stitch_edge"/>
    <path d="M 223.76 161.11 L 223.74 184.99" style="stroke:#C8102E;stroke-width:0.75;stroke-dasharray:none;fill:none;stroke-linecap:butt;opacity:1" data-role="stitch_edge"/>
    <path d="M 141.50 127.15 L 141.50 162.58" style="stroke:#C8102E;stroke-width:0.75;stroke-dasharray:none;fill:none;stroke-linecap:butt;opacity:1" data-role="stitch_edge"/>
  </g>
  <g id="role-contour_outer" data-role="contour_outer">
    <path d="M 136.40 159.61 L 136.40 151.71" style="stroke:#1A1A1A;stroke-width:1.5;stroke-dasharray:none;fill:none;stroke-linecap:butt;stroke-linejoin:round;opacity:1" data-role="contour_outer"/>
  </g>
  <g id="role-stitch_thru" data-role="stitch_thru">
    <path d="M 141.50 123.48 L 141.50 25.84" style="stroke:#C8102E;stroke-width:0.75;stroke-dasharray:3 1.5;fill:none;stroke-linecap:butt;opacity:1" data-role="stitch_thru"/>
    <path d="M 223.76 123.34 L 223.76 26.69" style="stroke:#C8102E;stroke-width:0.75;stroke-dasharray:3 1.5;fill:none;stroke-linecap:butt;opacity:1" data-role="stitch_thru"/>
  </g>
  <g id="role-break_line" data-role="break_line">
    <path d="M 337.95 143.70 L 337.95 25.54 L 23.62 25.54 L 23.62 145.59 L 23.62 151.71" style="stroke:#1A1A1A;stroke-width:0.5;stroke-dasharray:none;fill:none;stroke-linecap:round;opacity:1" data-role="break_line"/>
    <path d="M 223.76 130.10 L 123.34 118.17" style="stroke:#1A1A1A;stroke-width:0.5;stroke-dasharray:none;fill:none;stroke-linecap:round;opacity:1" data-role="break_line"/>
    <path d="M 214.63 105.28 L 123.83 80.78" style="stroke:#1A1A1A;stroke-width:0.5;stroke-dasharray:none;fill:none;stroke-linecap:round;opacity:1" data-role="break_line"/>
  </g>
  <g id="role-callout_line" data-role="callout_line">
    <path d="M 141.38 130.10 L 123.34 118.17" style="stroke:#333333;stroke-width:0.6;stroke-dasharray:none;fill:none;stroke-linecap:butt;opacity:0.9" data-role="callout_line"/>
    <path d="M 148.45 111.25 L 123.84 80.78" style="stroke:#333333;stroke-width:0.6;stroke-dasharray:none;fill:none;stroke-linecap:butt;opacity:0.9" data-role="callout_line"/>
  </g>
  <g id="role-break_line" data-role="break_line">
    <path d="M 23.62 151.29 L 155.27 151.29" style="stroke:#1A1A1A;stroke-width:0.5;stroke-dasharray:none;fill:none;stroke-linecap:round;opacity:1" data-role="break_line"/>
  </g>
  <g id="role-callout_line" data-role="callout_line">
    <path d="M 89.45 171.77 L 110.42 147.93" style="stroke:#333333;stroke-width:0.6;stroke-dasharray:none;fill:none;stroke-linecap:butt;opacity:0.9" data-role="callout_line"/>
    <path d="M 47.97 161.27 L 57.69 151.29" style="stroke:#333333;stroke-width:0.6;stroke-dasharray:none;fill:none;stroke-linecap:butt;opacity:0.9" data-role="callout_line"/>
    <path d="M 231.42 154.91 L 260.93 174.54" style="stroke:#333333;stroke-width:0.6;stroke-dasharray:none;fill:none;stroke-linecap:butt;opacity:0.9" data-role="callout_line"/>
  </g>
  <g id="role-label" data-role="label">
    <text x="156.1" y="215.4" font-family="Arial, sans-serif" font-size="10.0" fill="#1A1A1A">Zipper</text>
    <text x="71.3" y="182.6" font-family="Arial, sans-serif" font-size="10.0" fill="#1A1A1A">padding</text>
    <text x="89.4" y="85.7" font-family="Arial, sans-serif" font-size="10.0" fill="#1A1A1A">Binding</text>
    <text x="247.2" y="184.8" font-family="Arial, sans-serif" font-size="10.0" fill="#1A1A1A">Binding</text>
    <text x="57.7" y="124.3" font-family="Arial, sans-serif" font-size="10.0" fill="#1A1A1A">Stitch on stitch</text>
    <text x="31.6" y="170.1" font-family="Arial, sans-serif" font-size="10.0" fill="#1A1A1A">lining</text>
  </g>
</svg>