<svg xmlns="http://www.w3.org/2000/svg" viewBox="0.00 0.00 263.14 235.27">
  <path d="M 88.18 164.72 L 88.18 147.96 L 102.18 147.96 L 102.18 154.45 L 92.72 153.96 L 92.72 167.16 L 102.39 167.32 L 102.39 171.54 L 95.23 171.54 C 93.83 171.44 92.66 171.12 91.70 170.63 C 89.27 169.38 88.18 167.07 88.18 164.72 Z" style="stroke:none;stroke-width:1.00;fill:#f8a76f;stroke-linecap:butt;stroke-linejoin:miter;" data-role="fill_binding" data-sk="none|#f8a76f|0|false"/>
  <path d="M 167.43 184.91 L 167.43 148.15 L 153.43 148.15 L 153.43 157.64 L 161.88 157.15 L 161.88 188.35 L 153.22 188.51 L 153.22 191.73 L 160.38 191.73 C 161.77 191.63 162.94 191.31 163.90 190.82 C 166.34 189.57 167.43 187.26 167.43 184.91 Z" style="stroke:none;stroke-width:1.00;fill:#f8a76f;stroke-linecap:butt;stroke-linejoin:miter;" data-role="fill_binding" data-sk="none|#f8a76f|0|false"/>
  <path d="M 161.86 163.28 L 150.81 163.28 C 137.85 163.03 139.27 144.03 150.81 143.81 L 242.71 143.80" style="stroke:#221f1f;stroke-width:1.50;fill:none;stroke-linecap:butt;stroke-linejoin:miter;" data-role="contour_outer" data-sk="#1a1a1a|none|1.5|false"/>
  <path d="M 112.73 153.16 L 112.73 9.16" style="stroke:#221f1f;stroke-width:1.50;fill:none;stroke-linecap:butt;stroke-linejoin:miter;" data-role="contour_outer" data-sk="#1a1a1a|none|1.5|false"/>
  <path d="M 141.62 153.16 L 141.62 9.16" style="stroke:#221f1f;stroke-width:1.50;fill:none;stroke-linecap:butt;stroke-linejoin:miter;" data-role="contour_outer" data-sk="#1a1a1a|none|1.5|false"/>
  <path d="M 106.12 133.35 L 106.12 9.12" style="stroke:#eb2123;stroke-width:1.00;fill:none;stroke-linecap:butt;stroke-linejoin:miter;stroke-dasharray:7 7;" data-role="stitch_thru" data-sk="#e02020|none|1.0|true"/>
  <path d="M 148.39 133.36 L 148.39 9.12" style="stroke:#eb2123;stroke-width:1.00;fill:none;stroke-linecap:butt;stroke-linejoin:miter;stroke-dasharray:7 7;" data-role="stitch_thru" data-sk="#e02020|none|1.0|true"/>
  <path d="M 162.45 179.84 L 103.31 179.84 C 91.10 180.21 91.60 187.97 103.31 188.28 L 163.11 188.28" style="stroke:#221f1f;stroke-width:1.50;fill:none;stroke-linecap:butt;stroke-linejoin:miter;" data-role="contour_outer" data-sk="#1a1a1a|none|1.5|false"/>
  <path d="M 98.50 186.06 L 161.19 186.06" style="stroke:#29b473;stroke-width:1.50;fill:none;stroke-linecap:butt;stroke-linejoin:miter;" data-role="boundary_interlining" data-sk="#29b473|none|1.5|false"/>
  <path d="M 92.01 155.22 L 92.01 168.67" style="stroke:#221f1f;stroke-width:1.81;fill:none;stroke-linecap:butt;stroke-linejoin:miter;" data-role="contour_outer" data-sk="#1a1a1a|none|1.81|false"/>
  <path d="M 162.67 157.08 L 162.67 188.75" style="stroke:#221f1f;stroke-width:1.50;fill:none;stroke-linecap:butt;stroke-linejoin:miter;" data-role="contour_outer" data-sk="#1a1a1a|none|1.5|false"/>
  <path d="M 94.34 184.06 L 94.34 172.21" style="stroke:#221f1f;stroke-width:1.50;fill:none;stroke-linecap:butt;stroke-linejoin:miter;" data-role="contour_outer" data-sk="#1a1a1a|none|1.5|false"/>
  <path d="M 144.62 205.59 L 137.29 185.84 Z" style="stroke:#221f1f;stroke-width:0.75;fill:#221f1f;stroke-linecap:butt;stroke-linejoin:miter;" data-role="fill_interlining" data-sk="#1a1a1a|#1a1a1a|0.75|false"/>
  <path d="M 201.69 158.45 L 195.86 147.80 Z" style="stroke:#221f1f;stroke-width:0.75;fill:#221f1f;stroke-linecap:butt;stroke-linejoin:miter;" data-role="arrow" data-sk="#1a1a1a|#1a1a1a|0.75|false"/>
  <path d="M 52.87 156.61 L 59.85 147.80 Z" style="stroke:#221f1f;stroke-width:0.75;fill:#221f1f;stroke-linecap:butt;stroke-linejoin:miter;" data-role="arrow" data-sk="#1a1a1a|#1a1a1a|0.75|false"/>
  <path d="M 94.34 175.51 L 82.41 191.40 Z" style="stroke:#221f1f;stroke-width:0.75;fill:#221f1f;stroke-linecap:butt;stroke-linejoin:miter;" data-role="arrow" data-sk="#1a1a1a|#1a1a1a|0.75|false"/>
  <path d="M 88.23 153.50 L 63.73 176.90 Z" style="stroke:#221f1f;stroke-width:0.75;fill:#221f1f;stroke-linecap:butt;stroke-linejoin:miter;" data-role="fill_interlining" data-sk="#1a1a1a|#1a1a1a|0.75|false"/>
  <path d="M 92.23 168.37 L 163.21 168.37" style="stroke:#221f1f;stroke-width:0.90;fill:none;stroke-linecap:butt;stroke-linejoin:miter;" data-role="callout_line" data-sk="#1a1a1a|none|0.9|false"/>
  <path d="M 121.42 163.78 H 132.86 V 170.94 H 121.42 Z Z" style="stroke:none;stroke-width:1.00;fill:#000000;stroke-linecap:butt;stroke-linejoin:miter;" data-role="hw_zipper_tape" data-sk="none|#1a1a1a|0|false"/>
  <path d="M 128.30 10.25 L 128.30 163.63" style="stroke:#000000;stroke-width:5.72;fill:none;stroke-linecap:butt;stroke-linejoin:miter;stroke-dasharray:2.146;" data-role="hw_zipper_tape" data-sk="#1a1a1a|none|5.72|true"/>
  <path d="M 125.80 8.08 L 125.80 165.75" style="stroke:#000000;stroke-width:5.72;fill:none;stroke-linecap:butt;stroke-linejoin:miter;stroke-dasharray:2.146;" data-role="hw_zipper_tape" data-sk="#1a1a1a|none|5.72|true"/>
  <path d="M 243.14 147.80 L 152.36 147.81 C 140.46 148.53 140.95 159.66 152.36 160.28 L 162.40 160.28" style="stroke:#221f1f;stroke-width:1.50;fill:none;stroke-linecap:butt;stroke-linejoin:miter;" data-role="contour_outer" data-sk="#1a1a1a|none|1.5|false"/>
  <path d="M 12.02 147.80 L 12.02 8.68 L 243.14 8.68 L 243.14 147.80" style="stroke:#221f1f;stroke-width:0.75;fill:none;stroke-linecap:butt;stroke-linejoin:miter;" data-role="break_line" data-sk="#1a1a1a|none|0.75|false"/>
  <path d="M 91.87 160.28 L 102.92 160.28 C 113.12 159.66 113.56 148.53 102.92 147.81 L 12.02 147.80" style="stroke:#221f1f;stroke-width:1.50;fill:none;stroke-linecap:butt;stroke-linejoin:miter;" data-role="contour_outer" data-sk="#1a1a1a|none|1.5|false"/>
  <path d="M 92.44 163.28 L 103.49 163.28 C 116.46 163.03 115.02 144.03 103.49 143.81 L 12.59 143.80" style="stroke:#221f1f;stroke-width:1.50;fill:none;stroke-linecap:butt;stroke-linejoin:miter;" data-role="contour_outer" data-sk="#1a1a1a|none|1.5|false"/>
  <path d="M 109.24 153.34 L 109.24 172.45" style="stroke:#eb2123;stroke-width:1.00;fill:none;stroke-linecap:butt;stroke-linejoin:miter;" data-role="stitch_thru" data-sk="#e02020|none|1.0|false"/>
  <path d="M 145.89 154.08 L 145.89 174.10" style="stroke:#eb2123;stroke-width:1.00;fill:none;stroke-linecap:butt;stroke-linejoin:miter;" data-role="stitch_thru" data-sk="#e02020|none|1.0|false"/>
  <path d="M 151.56 151.83 L 151.56 194.36" style="stroke:#eb2123;stroke-width:1.00;fill:none;stroke-linecap:butt;stroke-linejoin:miter;" data-role="stitch_edge" data-sk="#e02020|none|1.0|false"/>
  <path d="M 148.39 137.34 L 148.39 194.20" style="stroke:#eb2123;stroke-width:1.00;fill:none;stroke-linecap:butt;stroke-linejoin:miter;" data-role="stitch_edge" data-sk="#e02020|none|1.0|false"/>
  <path d="M 106.12 137.55 L 106.12 172.45" style="stroke:#eb2123;stroke-width:1.00;fill:none;stroke-linecap:butt;stroke-linejoin:miter;" data-role="stitch_edge" data-sk="#e02020|none|1.0|false"/>
  <path d="M 102.44 168.48 L 102.44 171.69 L 95.29 171.69 C 93.89 171.60 92.72 171.27 91.76 170.78 C 85.81 167.74 87.89 155.32 94.21 154.61 L 102.23 154.61 L 102.23 148.11" style="stroke:#221f1f;stroke-width:1.50;fill:none;stroke-linecap:butt;stroke-linejoin:miter;" data-role="contour_outer" data-sk="#1a1a1a|none|1.5|false"/>
  <path d="M 88.23 161.88 L 88.23 148.11" style="stroke:#221f1f;stroke-width:1.50;fill:none;stroke-linecap:butt;stroke-linejoin:miter;" data-role="contour_outer" data-sk="#1a1a1a|none|1.5|false"/>
  <path d="M 100.32 150.61 L 100.32 175.44" style="stroke:#eb2123;stroke-width:1.00;fill:none;stroke-linecap:butt;stroke-linejoin:miter;" data-role="stitch_edge" data-sk="#e02020|none|1.0|false"/>
  <path d="M 97.68 175.50 L 97.68 193.33" style="stroke:#eb2123;stroke-width:1.00;fill:none;stroke-linecap:butt;stroke-linejoin:miter;" data-role="stitch_edge" data-sk="#e02020|none|1.0|false"/>
  <path d="M 132.86 175.50 L 132.86 193.33" style="stroke:#eb2123;stroke-width:1.00;fill:none;stroke-linecap:butt;stroke-linejoin:miter;" data-role="stitch_edge" data-sk="#e02020|none|1.0|false"/>
  <path d="M 153.56 188.95 L 153.56 192.17 L 160.72 192.17 C 162.12 192.07 163.29 191.75 164.25 191.25 C 170.19 188.21 168.11 157.80 161.79 157.08 L 153.77 157.08 L 153.77 147.58" style="stroke:#221f1f;stroke-width:1.50;fill:none;stroke-linecap:butt;stroke-linejoin:miter;" data-role="contour_outer" data-sk="#1a1a1a|none|1.5|false"/>
  <path d="M 167.77 180.06 L 167.77 147.81" style="stroke:#221f1f;stroke-width:1.50;fill:none;stroke-linecap:butt;stroke-linejoin:miter;" data-role="contour_outer" data-sk="#1a1a1a|none|1.5|false"/>
  <path d="M 157.68 153.08 L 157.68 196.99" style="stroke:#eb2123;stroke-width:1.00;fill:none;stroke-linecap:butt;stroke-linejoin:miter;" data-role="stitch_edge" data-sk="#e02020|none|1.0|false"/>
  <path d="M 163.45 152.47 L 184.65 179.49" style="stroke:#221f1f;stroke-width:0.75;fill:none;stroke-linecap:butt;stroke-linejoin:miter;" data-role="callout_line" data-sk="#1a1a1a|none|0.75|false|D"/>
  <path d="M 105.87 205.08 L 127.04 166.95 Z" style="stroke:#221f1f;stroke-width:0.75;fill:#221f1f;stroke-linecap:butt;stroke-linejoin:miter;" data-role="fill_interlining" data-sk="#1a1a1a|#1a1a1a|0.75|false"/>
  <text x="17.6" y="115.0" font-family="Arial,sans-serif" font-size="10.2" fill="#222">Fabric</text>
  <text x="17.6" y="127.0" font-family="Arial,sans-serif" font-size="10.2" fill="#222">nylon</text>
  <text x="17.6" y="139.0" font-family="Arial,sans-serif" font-size="10.2" fill="#222">application</text>
  <text x="187.5" y="117.5" font-family="Arial,sans-serif" font-size="10.2" fill="#222">Fabric</text>
  <text x="187.5" y="129.5" font-family="Arial,sans-serif" font-size="10.2" fill="#222">nylon</text>
  <text x="187.5" y="141.5" font-family="Arial,sans-serif" font-size="10.2" fill="#222">application</text>
  <text x="126.7" y="215.3" font-family="Arial,sans-serif" font-size="10.2" fill="#222">Interlining</text>
  <text x="88.5" y="214.9" font-family="Arial,sans-serif" font-size="10.2" fill="#222">Zipper</text>
  <text x="31.0" y="203.3" font-family="Arial,sans-serif" font-size="10.2" fill="#222">Inner placket</text>
  <text x="174.8" y="192.6" font-family="Arial,sans-serif" font-size="10.2" fill="#222">Tape</text>
  <text x="41.8" y="186.9" font-family="Arial,sans-serif" font-size="10.2" fill="#222">Tape</text>
  <text x="187.5" y="169.7" font-family="Arial,sans-serif" font-size="10.2" fill="#222">Shell fabric</text>
  <text x="12.0" y="167.3" font-family="Arial,sans-serif" font-size="10.2" fill="#222">Shell fabric</text>
  <text x="190.8" y="67.4" font-family="Arial,sans-serif" font-size="12.1" fill="#222">Left front</text>
  <text x="18.5" y="68.3" font-family="Arial,sans-serif" font-size="12.1" fill="#222">Right front</text>
</svg>