<svg xmlns="http://www.w3.org/2000/svg" viewBox="24.85 3.07 287.78 317.82">
  <path d="M 97.28 73.16 L 97.34 222.90 C 96.03 239.14 86.73 239.39 85.69 222.90 L 85.69 204.67 L 97.39 204.67" style="stroke:#221f1f;stroke-width:1.50;fill:none;stroke-linecap:butt;stroke-linejoin:miter;" data-role="contour_outer" data-sk="#1a1a1a|none|1.5|false"/>
  <path d="M 90.28 235.04 L 106.12 235.04" style="stroke:#221f1f;stroke-width:1.50;fill:none;stroke-linecap:butt;stroke-linejoin:miter;" data-role="contour_outer" data-sk="#1a1a1a|none|1.5|false"/>
  <path d="M 150.06 275.10 L 150.09 139.11 C 149.77 123.67 140.01 123.35 140.43 139.11 L 140.47 155.59 L 149.96 155.59" style="stroke:#221f1f;stroke-width:1.50;fill:none;stroke-linecap:butt;stroke-linejoin:miter;" data-role="contour_outer" data-sk="#1a1a1a|none|1.5|false"/>
  <path d="M 204.51 36.51 L 149.14 36.51 L 149.17 92.90 C 148.84 108.34 139.09 108.67 139.51 92.90 L 139.54 75.43 L 149.04 75.43" style="stroke:#221f1f;stroke-width:1.50;fill:none;stroke-linecap:butt;stroke-linejoin:miter;" data-role="contour_outer" data-sk="#1a1a1a|none|1.5|false"/>
  <path d="M 205.03 23.07 L 292.63 23.07 L 292.63 275.10 L 80.06 275.10" style="stroke:#221f1f;stroke-width:0.75;fill:none;stroke-linecap:butt;stroke-linejoin:miter;" data-role="construction_line" data-sk="#1a1a1a|none|0.75|false"/>
  <path d="M 178.86 132.36 L 178.86 150.59 C 179.70 167.41 188.05 167.41 188.52 150.59 L 188.51 36.51" style="stroke:#221f1f;stroke-width:1.50;fill:none;stroke-linecap:butt;stroke-linejoin:miter;" data-role="contour_outer" data-sk="#1a1a1a|none|1.5|false"/>
  <path d="M 195.23 36.51 L 195.23 54.74 C 196.07 71.56 204.42 71.56 204.89 54.74 L 205.03 23.07" style="stroke:#221f1f;stroke-width:1.50;fill:none;stroke-linecap:butt;stroke-linejoin:miter;" data-role="contour_outer" data-sk="#1a1a1a|none|1.5|false"/>
  <path d="M 164.38 158.35 L 164.38 37.06" style="stroke:#29b473;stroke-width:1.50;fill:none;stroke-linecap:butt;stroke-linejoin:miter;" data-role="boundary_interlining" data-sk="#29b473|none|1.5|false"/>
  <path d="M 162.25 36.11 L 162.25 150.60 C 162.25 167.41 173.86 167.41 173.96 150.60 L 173.96 132.86 L 188.51 132.86" style="stroke:#17171b;stroke-width:1.50;fill:none;stroke-linecap:butt;stroke-linejoin:miter;" data-role="contour_outer" data-sk="#1a1a1a|none|1.5|false"/>
  <path d="M 106.08 275.07 L 106.02 141.33 C 108.47 125.39 114.37 124.14 116.67 141.33 L 116.67 157.56 L 149.79 157.56" style="stroke:#221f1f;stroke-width:1.50;fill:none;stroke-linecap:butt;stroke-linejoin:miter;" data-role="contour_outer" data-sk="#1a1a1a|none|1.5|false"/>
  <path d="M 149.04 73.48 L 80.33 73.48 L 79.93 274.51" style="stroke:#221f1f;stroke-width:1.50;fill:none;stroke-linecap:butt;stroke-linejoin:miter;" data-role="contour_outer" data-sk="#1a1a1a|none|1.5|false"/>
  <path d="M 183.48 163.21 L 292.63 163.19" style="stroke:#221f1f;stroke-width:1.50;fill:none;stroke-linecap:butt;stroke-linejoin:miter;" data-role="contour_outer" data-sk="#1a1a1a|none|1.5|false"/>
  <path d="M 200.40 67.37 L 292.63 67.36" style="stroke:#221f1f;stroke-width:1.50;fill:none;stroke-linecap:butt;stroke-linejoin:miter;" data-role="contour_outer" data-sk="#1a1a1a|none|1.5|false"/>
  <path d="M 144.35 104.60 L 162.30 104.60" style="stroke:#221f1f;stroke-width:1.50;fill:none;stroke-linecap:butt;stroke-linejoin:miter;" data-role="contour_outer" data-sk="#1a1a1a|none|1.5|false"/>
  <path d="M 144.43 127.41 L 162.38 127.41" style="stroke:#221f1f;stroke-width:1.50;fill:none;stroke-linecap:butt;stroke-linejoin:miter;" data-role="contour_outer" data-sk="#1a1a1a|none|1.5|false"/>
  <path d="M 110.97 128.90 L 125.13 128.90" style="stroke:#221f1f;stroke-width:1.50;fill:none;stroke-linecap:butt;stroke-linejoin:miter;" data-role="contour_outer" data-sk="#1a1a1a|none|1.5|false"/>
  <path d="M 169.28 163.19 L 183.89 163.19" style="stroke:#221f1f;stroke-width:1.50;fill:none;stroke-linecap:butt;stroke-linejoin:miter;" data-role="contour_outer" data-sk="#1a1a1a|none|1.5|false"/>
  <path d="M 123.95 114.86 L 75.17 111.27" style="stroke:#221f1f;stroke-width:0.75;fill:none;stroke-linecap:butt;stroke-linejoin:miter;" data-role="break_line" data-sk="#1a1a1a|none|0.75|false"/>
  <path d="M 98.20 288.08 L 96.31 268.10" style="stroke:#221f1f;stroke-width:0.75;fill:none;stroke-linecap:butt;stroke-linejoin:miter;" data-role="callout_line" data-sk="#1a1a1a|none|0.75|false"/>
  <path d="M 98.20 288.08 L 118.05 269.86" style="stroke:#221f1f;stroke-width:0.75;fill:none;stroke-linecap:butt;stroke-linejoin:miter;" data-role="callout_line" data-sk="#1a1a1a|none|0.75|false|D"/>
  <path d="M 140.49 154.96 L 125.41 154.96 L 125.13 76.19 L 140.35 76.19" style="stroke:#221f1f;stroke-width:1.50;fill:none;stroke-linecap:butt;stroke-linejoin:miter;" data-role="contour_outer" data-sk="#1a1a1a|none|1.5|false"/>
  <path d="M 123.75 112.27 H 128.49 V 117.94 H 123.75 Z Z" style="stroke:#221f1f;stroke-width:4.00;fill:#221f1f;stroke-linecap:butt;stroke-linejoin:miter;" data-role="arrow" data-sk="#1a1a1a|#1a1a1a|4.0|false"/>
  <path d="M 127.29 114.10 L 161.96 114.10" style="stroke:#000000;stroke-width:7.40;fill:none;stroke-linecap:butt;stroke-linejoin:miter;stroke-dasharray:2.776;" data-role="hw_zipper_tape" data-sk="#1a1a1a|none|7.4|true"/>
  <path d="M 160.62 116.10 L 128.96 116.10" style="stroke:#000000;stroke-width:7.40;fill:none;stroke-linecap:butt;stroke-linejoin:miter;stroke-dasharray:2.776;" data-role="hw_zipper_tape" data-sk="#1a1a1a|none|7.4|true"/>
  <path d="M 195.23 160.21 L 289.57 160.21" style="stroke:#ec3434;stroke-width:1.00;fill:none;stroke-linecap:butt;stroke-linejoin:miter;stroke-dasharray:7 7;" data-role="stitch_thru" data-sk="#e02020|none|1.0|true"/>
  <path d="M 215.95 63.58 L 292.63 63.58" style="stroke:#ec3434;stroke-width:1.00;fill:none;stroke-linecap:butt;stroke-linejoin:miter;stroke-dasharray:7 7;" data-role="stitch_thru" data-sk="#e02020|none|1.0|true"/>
  <path d="M 121.15 55.39 L 164.38 81.52" style="stroke:#221f1f;stroke-width:0.75;fill:none;stroke-linecap:butt;stroke-linejoin:miter;" data-role="callout_line" data-sk="#1a1a1a|none|0.75|false|D"/>
  <path d="M 211.76 63.58 L 141.63 63.58" style="stroke:#eb2123;stroke-width:1.00;fill:none;stroke-linecap:butt;stroke-linejoin:miter;" data-role="stitch_edge" data-sk="#e02020|none|1.0|false"/>
  <path d="M 201.32 59.18 L 141.63 59.18" style="stroke:#eb2123;stroke-width:1.00;fill:none;stroke-linecap:butt;stroke-linejoin:miter;" data-role="stitch_edge" data-sk="#e02020|none|1.0|false"/>
  <path d="M 201.32 55.66 L 155.63 55.66" style="stroke:#eb2123;stroke-width:1.00;fill:none;stroke-linecap:butt;stroke-linejoin:miter;" data-role="stitch_edge" data-sk="#e02020|none|1.0|false"/>
  <path d="M 261.70 146.39 L 271.31 132.83" style="stroke:#221f1f;stroke-width:0.75;fill:none;stroke-linecap:butt;stroke-linejoin:miter;" data-role="callout_line" data-sk="#1a1a1a|none|0.75|false"/>
  <path d="M 144.63 101.86 L 120.30 101.86" style="stroke:#eb2123;stroke-width:1.00;fill:none;stroke-linecap:butt;stroke-linejoin:miter;" data-role="stitch_edge" data-sk="#e02020|none|1.0|false"/>
  <path d="M 154.78 97.93 L 72.98 97.93" style="stroke:#eb2123;stroke-width:1.00;fill:none;stroke-linecap:butt;stroke-linejoin:miter;" data-role="stitch_edge" data-sk="#e02020|none|1.0|false"/>
  <path d="M 145.03 94.18 L 73.22 94.18" style="stroke:#eb2123;stroke-width:1.00;fill:none;stroke-linecap:butt;stroke-linejoin:miter;" data-role="stitch_edge" data-sk="#e02020|none|1.0|false"/>
  <path d="M 144.75 132.46 L 119.42 132.46" style="stroke:#eb2123;stroke-width:1.00;fill:none;stroke-linecap:butt;stroke-linejoin:miter;" data-role="stitch_edge" data-sk="#e02020|none|1.0|false"/>
  <path d="M 154.91 136.39 L 73.10 136.39" style="stroke:#eb2123;stroke-width:1.00;fill:none;stroke-linecap:butt;stroke-linejoin:miter;" data-role="stitch_edge" data-sk="#e02020|none|1.0|false"/>
  <path d="M 145.15 140.14 L 73.34 140.14" style="stroke:#eb2123;stroke-width:1.00;fill:none;stroke-linecap:butt;stroke-linejoin:miter;" data-role="stitch_edge" data-sk="#e02020|none|1.0|false"/>
  <path d="M 167.17 156.96 L 184.48 156.96" style="stroke:#eb2123;stroke-width:1.00;fill:none;stroke-linecap:butt;stroke-linejoin:miter;" data-role="stitch_edge" data-sk="#e02020|none|1.0|false"/>
  <path d="M 154.95 160.21 L 192.96 160.21" style="stroke:#eb2123;stroke-width:1.00;fill:none;stroke-linecap:butt;stroke-linejoin:miter;" data-role="stitch_edge" data-sk="#e02020|none|1.0|false"/>
  <path d="M 73.20 231.13 L 92.19 231.13" style="stroke:#eb2123;stroke-width:1.00;fill:none;stroke-linecap:butt;stroke-linejoin:miter;" data-role="stitch_edge" data-sk="#e02020|none|1.0|false"/>
  <path d="M 73.20 226.13 L 101.47 226.13" style="stroke:#eb2123;stroke-width:1.00;fill:none;stroke-linecap:butt;stroke-linejoin:miter;" data-role="stitch_edge" data-sk="#e02020|none|1.0|false"/>
  <text x="271.3" y="133.7" font-family="Arial,sans-serif" font-size="10.0" fill="#222">Bt</text>
  <text x="70.9" y="300.9" font-family="Arial,sans-serif" font-size="10.0" fill="#222">Lining of pocket</text>
  <text x="87.3" y="55.2" font-family="Arial,sans-serif" font-size="10.0" fill="#222">Interlining</text>
  <text x="44.8" y="117.8" font-family="Arial,sans-serif" font-size="10.0" fill="#222">Zipper</text>
  <text x="253.8" y="163.6" font-family="Arial,sans-serif" font-size="7.4" fill="#222">VVVVVV</text>
</svg>