<svg xmlns="http://www.w3.org/2000/svg" viewBox="1.85 0.00 199.75 154.48">
  <path d="M 21.85 100.28 L 112.19 100.28 C 117.28 100.28 117.38 106.40 117.38 109.76 C 117.39 116.57 112.19 115.64 112.19 115.64 L 83.52 115.64" style="stroke:#020304;stroke-width:1.50;fill:none;stroke-linecap:butt;stroke-linejoin:miter;" data-role="contour_outer" data-sk="#1a1a1a|none|1.5|false"/>
  <path d="M 181.59 120.42 L 181.59 16.70 L 21.85 16.70 L 21.85 100.28" style="stroke:#221f1f;stroke-width:0.75;fill:none;stroke-linecap:butt;stroke-linejoin:miter;" data-role="contour_outer" data-sk="#1a1a1a|none|0.75|false"/>
  <path d="M 83.52 109.06 L 83.52 120.42 L 181.59 120.42" style="stroke:#020304;stroke-width:1.50;fill:none;stroke-linecap:butt;stroke-linejoin:miter;" data-role="contour_outer" data-sk="#1a1a1a|none|1.5|false"/>
  <path d="M 117.39 109.53 L 117.39 16.69" style="stroke:#020304;stroke-width:1.50;fill:none;stroke-linecap:butt;stroke-linejoin:miter;" data-role="contour_outer" data-sk="#1a1a1a|none|1.5|false"/>
  <path d="M 114.99 127.10 L 114.99 106.61" style="stroke:#e11f25;stroke-width:1.00;fill:none;stroke-linecap:butt;stroke-linejoin:miter;" data-role="stitch_edge" data-sk="#e02020|none|1.0|false"/>
  <path d="M 85.81 107.52 L 85.81 111.60 L 110.47 111.60 C 110.47 111.60 113.48 109.65 110.47 106.79 L 89.04 106.79 C 81.13 107.51 80.66 114.49 80.85 120.96 C 80.94 124.21 82.83 128.58 89.04 128.93 L 108.69 128.93 C 111.72 128.36 111.81 124.62 108.69 124.60 L 84.80 124.60 L 84.80 120.67" style="stroke:#020304;stroke-width:1.50;fill:none;stroke-linecap:butt;stroke-linejoin:miter;" data-role="contour_outer" data-sk="#1a1a1a|none|1.5|false"/>
  <path d="M 111.81 108.93 L 111.81 99.86" style="stroke:#020304;stroke-width:1.50;fill:none;stroke-linecap:butt;stroke-linejoin:miter;" data-role="contour_outer" data-sk="#1a1a1a|none|1.5|false"/>
  <path d="M 110.98 127.76 L 110.98 120.37" style="stroke:#020304;stroke-width:1.50;fill:none;stroke-linecap:butt;stroke-linejoin:miter;" data-role="contour_outer" data-sk="#1a1a1a|none|1.5|false"/>
  <path d="M 80.84 120.75 L 80.84 100.60" style="stroke:#020304;stroke-width:1.50;fill:none;stroke-linecap:butt;stroke-linejoin:miter;" data-role="contour_outer" data-sk="#1a1a1a|none|1.5|false"/>
  <path d="M 106.30 134.15 L 106.30 102.15" style="stroke:#e11f25;stroke-width:1.00;fill:none;stroke-linecap:butt;stroke-linejoin:miter;" data-role="stitch_edge" data-sk="#e02020|none|1.0|false"/>
  <path d="M 108.30 134.48 L 108.30 95.48" style="stroke:#e11f25;stroke-width:1.00;fill:none;stroke-linecap:butt;stroke-linejoin:miter;" data-role="stitch_edge" data-sk="#e02020|none|1.0|false"/>
  <path d="M 85.68 134.02 L 85.68 95.31" style="stroke:#e11f25;stroke-width:1.00;fill:none;stroke-linecap:butt;stroke-linejoin:miter;" data-role="stitch_edge" data-sk="#e02020|none|1.0|false"/>
  <path d="M 85.68 91.95 L 85.68 16.36" style="stroke:#eb2123;stroke-width:1.00;fill:none;stroke-linecap:butt;stroke-linejoin:miter;stroke-dasharray:7 7;" data-role="stitch_thru" data-sk="#e02020|none|1.0|true"/>
  <path d="M 108.30 91.95 L 108.30 16.36" style="stroke:#eb2123;stroke-width:1.00;fill:none;stroke-linecap:butt;stroke-linejoin:miter;stroke-dasharray:7 7;" data-role="stitch_thru" data-sk="#e02020|none|1.0|true"/>
  <path d="M 84.80 104.99 L 67.51 114.30" style="stroke:#221f1f;stroke-width:0.75;fill:none;stroke-linecap:butt;stroke-linejoin:round;" data-role="callout_line" data-sk="#1a1a1a|none|0.75|false"/>
  <text x="37.8" y="125.8" font-family="Arial,sans-serif" font-size="10.0" fill="#222">Binding</text>
</svg>