<svg xmlns="http://www.w3.org/2000/svg" viewBox="192.40 2.42 250.31 193.61">
  <!-- VSE — Visual Standardization Engine -->
  <g id="role-contour_outer" data-role="contour_outer">
    <path d="M 253.03 90.36 L 266.00 90.36" style="stroke:#1A1A1A;stroke-width:1.5;stroke-dasharray:none;fill:none;stroke-linecap:butt;stroke-linejoin:round;opacity:1" data-role="contour_outer"/>
    <path d="M 286.92 112.69 L 256.62 112.69 L 256.56 98.40 C 255.40 90.74 246.15 92.68 246.15 98.44 L 246.15 175.59" style="stroke:#1A1A1A;stroke-width:1.5;stroke-dasharray:none;fill:none;stroke-linecap:butt;stroke-linejoin:round;opacity:1" data-role="contour_outer"/>
    <path d="M 267.66 22.51 L 267.66 112.61" style="stroke:#1A1A1A;stroke-width:1.5;stroke-dasharray:none;fill:none;stroke-linecap:butt;stroke-linejoin:round;opacity:1" data-role="contour_outer"/>
    <path d="M 264.00 22.42 L 422.20 22.42" style="stroke:#1A1A1A;stroke-width:1.5;stroke-dasharray:none;fill:none;stroke-linecap:butt;stroke-linejoin:round;opacity:1" data-role="contour_outer"/>
    <path d="M 241.83 175.39 L 422.72 175.39" style="stroke:#1A1A1A;stroke-width:1.5;stroke-dasharray:none;fill:none;stroke-linecap:butt;stroke-linejoin:round;opacity:1" data-role="contour_outer"/>
    <path d="M 422.20 22.42 L 422.20 176.03" style="stroke:#1A1A1A;stroke-width:1.5;stroke-dasharray:none;fill:none;stroke-linecap:butt;stroke-linejoin:round;opacity:1" data-role="contour_outer"/>
    <path d="M 290.38 75.28 L 422.07 75.28" style="stroke:#1A1A1A;stroke-width:1.5;stroke-dasharray:none;fill:none;stroke-linecap:butt;stroke-linejoin:round;opacity:1" data-role="contour_outer"/>
    <path d="M 293.16 118.72 L 421.25 118.72" style="stroke:#1A1A1A;stroke-width:1.5;stroke-dasharray:none;fill:none;stroke-linecap:butt;stroke-linejoin:round;opacity:1" data-role="contour_outer"/>
    <path d="M 297.00 93.99 L 286.61 94.01 L 286.54 78.61 C 289.95 72.08 297.29 76.83 297.29 78.72" style="stroke:#1A1A1A;stroke-width:1.5;stroke-dasharray:none;fill:none;stroke-linecap:butt;stroke-linejoin:round;opacity:1" data-role="contour_outer"/>
    <path d="M 297.29 78.72 L 297.29 115.28 C 297.29 119.40 286.92 120.57 286.87 114.36 L 286.82 101.99 L 297.24 101.96" style="stroke:#1A1A1A;stroke-width:1.5;stroke-dasharray:none;fill:none;stroke-linecap:butt;stroke-linejoin:round;opacity:1" data-role="contour_outer"/>
  </g>
  <g id="role-boundary_fragment" data-role="boundary_fragment">
    <path d="M 265.26 22.51 L 265.26 112.76" style="stroke:#27A6DE;stroke-width:1.5;stroke-dasharray:none;fill:none;stroke-linecap:butt;opacity:1" data-role="boundary_fragment"/>
    <path d="M 258.89 112.42 L 258.89 98.13 C 258.89 87.55 243.49 88.49 243.49 98.23 L 243.49 175.39" style="stroke:#27A6DE;stroke-width:1.5;stroke-dasharray:none;fill:none;stroke-linecap:butt;opacity:1" data-role="boundary_fragment"/>
  </g>
  <g id="role-stitch_edge" data-role="stitch_edge">
    <path d="M 279.11 96.53 L 250.41 96.53" style="stroke:#C8102E;stroke-width:0.75;stroke-dasharray:none;fill:none;stroke-linecap:butt;opacity:1" data-role="stitch_edge"/>
    <path d="M 306.49 79.61 L 237.01 79.61" style="stroke:#C8102E;stroke-width:0.75;stroke-dasharray:none;fill:none;stroke-linecap:butt;opacity:1" data-role="stitch_edge"/>
    <path d="M 307.11 114.50 L 235.62 114.50" style="stroke:#C8102E;stroke-width:0.75;stroke-dasharray:none;fill:none;stroke-linecap:butt;opacity:1" data-role="stitch_edge"/>
  </g>
  <g id="role-stitch_thru" data-role="stitch_thru">
    <path d="M 310.93 79.77 L 421.75 79.77" style="stroke:#C8102E;stroke-width:0.75;stroke-dasharray:3 1.5;fill:none;stroke-linecap:butt;opacity:1" data-role="stitch_thru"/>
    <path d="M 311.38 114.56 L 422.20 114.56" style="stroke:#C8102E;stroke-width:0.75;stroke-dasharray:3 1.5;fill:none;stroke-linecap:butt;opacity:1" data-role="stitch_thru"/>
  </g>
  <g id="role-callout_line" data-role="callout_line">
    <path d="M 252.03 54.63 L 265.26 59.90" style="stroke:#333333;stroke-width:0.6;stroke-dasharray:none;fill:none;stroke-linecap:butt;opacity:0.9" data-role="callout_line"/>
  </g>
  <g id="role-label" data-role="label">
    <text x="342.5" y="104.5" font-family="Arial, sans-serif" font-size="10.0" fill="#1A1A1A">Binding</text>
    <text x="212.4" y="59.0" font-family="Arial, sans-serif" font-size="10.0" fill="#1A1A1A">Padding</text>
    <text x="342.1" y="42.0" font-family="Arial, sans-serif" font-size="12.0" fill="#1A1A1A">Inside</text>
  </g>
</svg>