<svg xmlns="http://www.w3.org/2000/svg" viewBox="0.00 0.00 247.54 304.18">
  <!-- VSE — Visual Standardization Engine -->
  <g id="role-contour_outer" data-role="contour_outer">
    <path d="M 31.84 55.69 L 31.84 195.91 C 31.44 207.72 21.20 208.09 20.84 195.91 L 20.84 186.48 L 31.84 186.48" style="stroke:#1A1A1A;stroke-width:1.5;stroke-dasharray:none;fill:none;stroke-linecap:butt;stroke-linejoin:round;opacity:1" data-role="contour_outer" data-elem-key="c51e8b66dadf292c" data-group-key="contour_outer|#1a1a1a|none|1.5|false"/>
    <path d="M 83.77 168.33 L 83.77 154.57 C 84.42 141.82 100.40 141.27 101.17 154.57 L 101.17 283.90" style="stroke:#1A1A1A;stroke-width:1.5;stroke-dasharray:none;fill:none;stroke-linecap:butt;stroke-linejoin:round;opacity:1" data-role="contour_outer" data-elem-key="669b128291c4e889" data-group-key="contour_outer|#1a1a1a|none|1.5|false"/>
  </g>
  <g id="role-boundary_interlining" data-role="boundary_interlining">
    <path d="M 86.24 169.14 L 86.24 154.10 C 87.63 144.68 97.39 144.28 98.86 154.10 L 98.86 196.32" style="stroke:#29B473;stroke-width:1.0;stroke-dasharray:none;fill:none;stroke-linecap:butt;opacity:1" data-role="boundary_interlining" data-elem-key="bd095cb21e5ef9d0" data-group-key="boundary_interlining|#29b473|none|1.5|false"/>
  </g>
  <g id="role-contour_outer" data-role="contour_outer">
    <path d="M 59.56 169.11 L 59.56 97.36 C 60.21 84.60 76.19 84.06 76.96 97.36 L 76.97 169.11" style="stroke:#1A1A1A;stroke-width:1.5;stroke-dasharray:none;fill:none;stroke-linecap:butt;stroke-linejoin:round;opacity:1" data-role="contour_outer" data-elem-key="f7fe901215b00e98" data-group-key="contour_outer|#1a1a1a|none|1.5|false"/>
    <path d="M 98.39 169.11 L 53.56 169.11 L 53.70 157.88 C 53.33 145.70 43.10 146.07 42.70 157.88 L 42.70 284.18" style="stroke:#1A1A1A;stroke-width:1.5;stroke-dasharray:none;fill:none;stroke-linecap:butt;stroke-linejoin:round;opacity:1" data-role="contour_outer" data-elem-key="f62fbb1b656b9e7f" data-group-key="contour_outer|#1a1a1a|none|1.5|false"/>
  </g>
  <g id="role-boundary_interlining" data-role="boundary_interlining">
    <path d="M 62.03 168.92 L 62.03 96.89 C 63.43 87.47 73.18 87.07 74.65 96.89 L 74.65 169.10" style="stroke:#29B473;stroke-width:1.0;stroke-dasharray:none;fill:none;stroke-linecap:butt;opacity:1" data-role="boundary_interlining" data-elem-key="2d024ad92dd8f0e5" data-group-key="boundary_interlining|#29b473|none|1.5|false"/>
  </g>
  <g id="role-contour_outer" data-role="contour_outer">
    <path d="M 49.09 148.89 L 59.03 148.89" style="stroke:#1A1A1A;stroke-width:1.5;stroke-dasharray:none;fill:none;stroke-linecap:butt;stroke-linejoin:round;opacity:1" data-role="contour_outer" data-elem-key="b3c784ab3ca524d4" data-group-key="contour_outer|#1a1a1a|none|1.5|false"/>
    <path d="M 199.70 87.58 L 199.70 144.74 L 92.47 144.74" style="stroke:#1A1A1A;stroke-width:1.5;stroke-dasharray:none;fill:none;stroke-linecap:butt;stroke-linejoin:round;opacity:1" data-role="contour_outer" data-elem-key="8d4dfd065ddbdbee" data-group-key="contour_outer|#1a1a1a|none|1.5|false"/>
    <path d="M 68.47 87.58 L 199.70 87.58" style="stroke:#1A1A1A;stroke-width:1.5;stroke-dasharray:none;fill:none;stroke-linecap:butt;stroke-linejoin:round;opacity:1" data-role="contour_outer" data-elem-key="b55e8fb635d8c3b3" data-group-key="contour_outer|#1a1a1a|none|1.5|false"/>
  </g>
  <g id="role-stitch_edge" data-role="stitch_edge">
    <path d="M 92.41 154.35 L 49.32 154.35" style="stroke:#C8102E;stroke-width:0.75;stroke-dasharray:none;fill:none;stroke-linecap:butt;opacity:1" data-role="stitch_edge" data-elem-key="4037a1cd6ac5b103" data-group-key="stitch_edge|#e02020|none|1.0|false"/>
    <path d="M 92.41 158.26 L 56.32 158.26" style="stroke:#C8102E;stroke-width:0.75;stroke-dasharray:none;fill:none;stroke-linecap:butt;opacity:1" data-role="stitch_edge" data-elem-key="a811c7751316eafa" data-group-key="stitch_edge|#e02020|none|1.0|false"/>
    <path d="M 110.32 151.15 L 49.22 151.15" style="stroke:#C8102E;stroke-width:0.75;stroke-dasharray:none;fill:none;stroke-linecap:butt;opacity:1" data-role="stitch_edge" data-elem-key="a9168116c82a1d7a" data-group-key="stitch_edge|#e02020|none|1.0|false"/>
  </g>
  <g id="role-contour_outer" data-role="contour_outer">
    <path d="M 17.19 283.69 L 17.19 40.69 L 73.70 40.69" style="stroke:#1A1A1A;stroke-width:1.5;stroke-dasharray:none;fill:none;stroke-linecap:butt;stroke-linejoin:round;opacity:1" data-role="contour_outer" data-elem-key="8f905a7b034e33c9" data-group-key="contour_outer|#1a1a1a|none|1.5|false"/>
    <path d="M 31.34 55.69 L 73.85 55.69" style="stroke:#1A1A1A;stroke-width:1.5;stroke-dasharray:none;fill:none;stroke-linecap:butt;stroke-linejoin:round;opacity:1" data-role="contour_outer" data-elem-key="b6c9f91161dae621" data-group-key="contour_outer|#1a1a1a|none|1.5|false"/>
    <path d="M 76.53 10.82 L 76.53 78.08 C 75.76 91.38 59.78 90.83 59.13 78.08 L 59.13 62.33 L 72.86 62.33" style="stroke:#1A1A1A;stroke-width:1.5;stroke-dasharray:none;fill:none;stroke-linecap:butt;stroke-linejoin:round;opacity:1" data-role="contour_outer" data-elem-key="20cd9106e4eb4d78" data-group-key="contour_outer|#1a1a1a|none|1.5|false"/>
  </g>
  <g id="role-boundary_interlining" data-role="boundary_interlining">
    <path d="M 61.60 62.52 L 61.60 78.55 C 62.99 87.97 72.74 88.37 74.22 78.55 L 74.22 36.33" style="stroke:#29B473;stroke-width:1.0;stroke-dasharray:none;fill:none;stroke-linecap:butt;opacity:1" data-role="boundary_interlining" data-elem-key="b97bcb9e3e93ad22" data-group-key="boundary_interlining|#29b473|none|1.5|false"/>
  </g>
  <g id="role-stitch_edge" data-role="stitch_edge">
    <path d="M 68.78 78.48 L 11.06 78.48" style="stroke:#C8102E;stroke-width:0.75;stroke-dasharray:none;fill:none;stroke-linecap:butt;opacity:1" data-role="stitch_edge" data-elem-key="cbc83ddfd1b1d3f2" data-group-key="stitch_edge|#e02020|none|1.0|false"/>
    <path d="M 11.06 81.52 L 85.32 81.52" style="stroke:#C8102E;stroke-width:0.75;stroke-dasharray:none;fill:none;stroke-linecap:butt;opacity:1" data-role="stitch_edge" data-elem-key="0c24d89c2bf66bbc" data-group-key="stitch_edge|#e02020|none|1.0|false"/>
    <path d="M 27.34 200.76 L 11.42 200.76" style="stroke:#C8102E;stroke-width:0.75;stroke-dasharray:none;fill:none;stroke-linecap:butt;opacity:1" data-role="stitch_edge" data-elem-key="484aa80ca94d61d1" data-group-key="stitch_edge|#e02020|none|1.0|false"/>
    <path d="M 37.75 196.58 L 11.42 196.58" style="stroke:#C8102E;stroke-width:0.75;stroke-dasharray:none;fill:none;stroke-linecap:butt;opacity:1" data-role="stitch_edge" data-elem-key="b0d0232dee819613" data-group-key="stitch_edge|#e02020|none|1.0|false"/>
  </g>
  <g id="role-contour_outer" data-role="contour_outer">
    <path d="M 26.34 204.91 L 43.25 204.91" style="stroke:#1A1A1A;stroke-width:1.5;stroke-dasharray:none;fill:none;stroke-linecap:butt;stroke-linejoin:round;opacity:1" data-role="contour_outer" data-elem-key="41db1c72422d145d" data-group-key="contour_outer|#1a1a1a|none|1.5|false"/>
  </g>
  <g id="role-stitch_thru" data-role="stitch_thru">
    <path d="M 113.17 151.11 L 204.91 151.11" style="stroke:#C8102E;stroke-width:0.75;stroke-dasharray:3 1.5;fill:none;stroke-linecap:butt;opacity:1" data-role="stitch_thru" data-elem-key="2e7d3f074c219bb6" data-group-key="boundary_lining|#e02020|none|1.0|true"/>
    <path d="M 205.91 150.11 L 205.91 81.52 L 90.40 81.52" style="stroke:#C8102E;stroke-width:0.75;stroke-dasharray:3 1.5;fill:none;stroke-linecap:butt;opacity:1" data-role="stitch_thru" data-elem-key="8ceac17f032a01f7" data-group-key="boundary_lining|#e02020|none|1.0|true"/>
  </g>
  <g id="role-break_line" data-role="break_line">
    <path d="M 16.17 283.90 L 227.54 283.90 L 227.54 11.69 L 76.53 11.69" style="stroke:#1A1A1A;stroke-width:1.0;stroke-dasharray:none;fill:none;stroke-linecap:round;opacity:1" data-role="break_line" data-elem-key="9b94b0c60a205fe5" data-group-key="break_line|#1a1a1a|none|0.75|false"/>
  </g>
  <g id="role-callout_line" data-role="callout_line">
    <path d="M 74.65 160.72 L 113.17 163.48 L 99.48 176.13" style="stroke:#333333;stroke-width:0.6;stroke-dasharray:none;fill:none;stroke-linecap:butt;opacity:0.9" data-role="callout_line" data-elem-key="511cb0941dd54279" data-group-key="callout_line|#1a1a1a|none|0.75|false"/>
    <path d="M 49.32 226.35 L 51.10 239.06 L 24.58 233.59" style="stroke:#333333;stroke-width:0.6;stroke-dasharray:none;fill:none;stroke-linecap:butt;opacity:0.9" data-role="callout_line" data-elem-key="27b918837fc89c11" data-group-key="callout_line|#1a1a1a|none|0.75|false"/>
    <path d="M 211.61 158.26 L 204.91 144.74" style="stroke:#333333;stroke-width:0.6;stroke-dasharray:none;fill:none;stroke-linecap:butt;opacity:0.9" data-role="callout_line" data-elem-key="d71b91e9128decdd" data-group-key="callout_line|#1a1a1a|none|0.75|false"/>
  </g>
  <g id="role-stitch_symbol" data-role="stitch_symbol" data-trace-ignore="1">
    <path d="M 194.03 129.12 L 197.09 144.77 L 200.16 129.12 L 203.22 144.77 L 206.29 129.12 L 209.35 144.77 L 212.42 129.12 L 215.49 144.77 L 218.55 129.12 L 221.62 144.77 L 224.68 129.12 L 227.75 144.77 L 230.82 129.12 L 233.88 144.77 L 236.95 129.12 L 240.01 144.77 L 243.08 129.12 L 246.14 144.77 L 249.21 129.12 L 252.28 144.77 L 255.34 129.12 L 258.41 144.77 L 261.47 129.12 L 264.54 144.77 L 267.60 129.12 L 270.67 144.77 L 273.74 129.12 L 276.80 144.77 L 279.87 129.12 L 282.93 144.77 L 286.00 129.12 L 289.06 144.77 L 292.13 129.12 L 295.20 144.77 L 298.26 129.12 L 301.33 144.77 L 304.39 129.12 L 307.46 144.77 L 310.53 129.12 L 313.59 144.77 L 316.66 129.12 L 319.72 144.77 L 322.79 129.12" style="stroke:#1A1A1A;stroke-width:0.5;stroke-dasharray:none;fill:none;stroke-linecap:round;stroke-linejoin:round;opacity:1" data-role="stitch_symbol" data-trace-ignore="1"/>
  </g>
  <g id="role-label" data-role="label" data-trace-ignore="1">
    <text x="56.1" y="243.0" font-family="Arial, sans-serif" font-size="10.0" fill="#1A1A1A">Lining</text>
    <text x="50.6" y="255.0" font-family="Arial, sans-serif" font-size="10.0" fill="#1A1A1A">of pocket</text>
    <text x="211.6" y="172.4" font-family="Arial, sans-serif" font-size="10.0" fill="#1A1A1A">Bt</text>
    <text x="114.7" y="169.9" font-family="Arial, sans-serif" font-size="10.0" fill="#1A1A1A">Interlining</text>
  </g>
</svg>