<svg xmlns="http://www.w3.org/2000/svg" viewBox="58.44 0.00 200.00 285.17">
  <!-- VSE — Visual Standardization Engine -->
  <g id="role-fill_elastic" data-role="fill_elastic">
    <path d="M 152.52 61.09 L 151.83 43.93 C 151.82 37.67 147.87 33.57 140.72 32.09 L 129.55 34.46 C 124.44 34.80 119.55 38.78 119.55 46.20 L 119.53 60.48 L 109.56 62.62 L 109.56 42.15 C 109.53 36.75 118.79 31.04 128.59 30.08 L 237.86 13.40 L 237.67 47.50 L 152.52 61.09 Z" style="stroke:#1A1A1A;stroke-width:1.0;stroke-dasharray:none;fill:#8F9092;opacity:1" data-role="fill_elastic" data-elem-key="034e77f56082b39c" data-group-key="fill_elastic|none|#faa070|0.0|false"/>
    <path d="M 138.13 38.75 C 139.80 40.49 140.72 41.73 140.72 45.27 L 140.72 155.93 L 128.45 158.06 L 128.45 39.63 L 138.13 38.75 Z" style="stroke:#1A1A1A;stroke-width:1.0;stroke-dasharray:none;fill:#8F9092;opacity:1" data-role="fill_elastic" data-elem-key="c926b1ad930a8b18" data-group-key="fill_elastic|#1a1a1a|#27a6de|1.0|false"/>
  </g>
  <g id="role-contour_outer" data-role="contour_outer">
    <path d="M 119.45 187.14 L 166.71 180.08" style="stroke:#1A1A1A;stroke-width:1.5;stroke-dasharray:none;fill:none;stroke-linecap:butt;stroke-linejoin:round;opacity:1" data-role="contour_outer" data-elem-key="0cffd83944456450" data-group-key="contour_outer|#1a1a1a|none|1.5|false"/>
    <path d="M 165.90 264.17 L 165.87 165.14 C 165.20 151.61 151.20 152.16 150.63 165.14 L 150.63 182.79" style="stroke:#1A1A1A;stroke-width:1.5;stroke-dasharray:none;fill:none;stroke-linecap:butt;stroke-linejoin:round;opacity:1" data-role="contour_outer" data-elem-key="c98ac8fc3af04409" data-group-key="contour_outer|#1a1a1a|none|1.5|false"/>
  </g>
  <g id="role-construction_line" data-role="construction_line">
    <path d="M 237.86 13.40 L 238.45 253.86 L 237.86 253.95 L 164.71 265.17" style="stroke:#1A1A1A;stroke-width:0.9;stroke-dasharray:none;fill:none;stroke-linecap:butt;stroke-linejoin:round;opacity:1" data-role="construction_line" data-elem-key="eb75091c7331f7aa" data-group-key="construction_line|#1a1a1a|none|0.8|false"/>
  </g>
  <g id="role-contour_outer" data-role="contour_outer">
    <path d="M 158.27 155.20 L 237.64 142.87" style="stroke:#1A1A1A;stroke-width:1.5;stroke-dasharray:none;fill:none;stroke-linecap:butt;stroke-linejoin:round;opacity:1" data-role="contour_outer" data-elem-key="d4187b095443ecaa" data-group-key="contour_outer|#1a1a1a|none|1.5|false"/>
    <path d="M 119.42 61.48 L 109.53 62.62 L 109.53 44.15 C 109.53 26.48 151.77 23.81 151.80 45.93 L 151.82 61.94" style="stroke:#1A1A1A;stroke-width:1.5;stroke-dasharray:none;fill:none;stroke-linecap:butt;stroke-linejoin:round;opacity:1" data-role="contour_outer" data-elem-key="a67f0f174a60de90" data-group-key="contour_outer|#1a1a1a|none|1.5|false"/>
    <path d="M 152.49 61.09 L 237.64 47.50" style="stroke:#1A1A1A;stroke-width:1.5;stroke-dasharray:none;fill:none;stroke-linecap:butt;stroke-linejoin:round;opacity:1" data-role="contour_outer" data-elem-key="6a3c9ec311a6f3e2" data-group-key="contour_outer|#1a1a1a|none|1.5|false"/>
    <path d="M 127.53 30.21 L 238.45 13.72" style="stroke:#1A1A1A;stroke-width:1.5;stroke-dasharray:none;fill:none;stroke-linecap:butt;stroke-linejoin:round;opacity:1" data-role="contour_outer" data-elem-key="212b94f4c40ec203" data-group-key="contour_outer|#1a1a1a|none|1.5|false"/>
    <path d="M 129.55 34.46 L 141.84 32.35" style="stroke:#1A1A1A;stroke-width:1.5;stroke-dasharray:none;fill:none;stroke-linecap:butt;stroke-linejoin:round;opacity:1" data-role="contour_outer" data-elem-key="dc3b18d01f571ebe" data-group-key="contour_outer|#1a1a1a|none|1.5|false"/>
    <path d="M 119.45 187.14 L 119.52 46.20 C 119.52 30.68 140.94 30.20 140.94 46.69 L 140.94 184.74" style="stroke:#1A1A1A;stroke-width:1.5;stroke-dasharray:none;fill:none;stroke-linecap:butt;stroke-linejoin:round;opacity:1" data-role="contour_outer" data-elem-key="309e85fc9e133a50" data-group-key="contour_outer|#1a1a1a|none|1.5|false"/>
  </g>
  <g id="role-stitch_edge" data-role="stitch_edge">
    <path d="M 109.87 172.44 L 175.02 172.41" style="stroke:#C8102E;stroke-width:0.75;stroke-dasharray:none;fill:none;stroke-linecap:butt;opacity:1" data-role="stitch_edge" data-elem-key="6e89bb4a805b2c56" data-group-key="stitch_edge|#e02020|none|1.0|false"/>
    <path d="M 100.01 56.28 L 159.57 56.32" style="stroke:#C8102E;stroke-width:0.75;stroke-dasharray:none;fill:none;stroke-linecap:butt;opacity:1" data-role="stitch_edge" data-elem-key="ab8b3d6e91574c90" data-group-key="stitch_edge|#e02020|none|1.0|false"/>
    <path d="M 158.07 177.44 C 158.07 185.99 148.41 192.93 136.49 192.93 C 124.57 192.93 114.91 185.99 114.91 177.44 C 114.91 168.89 124.57 161.95 136.49 161.95 C 148.41 161.95 158.07 168.89 158.07 177.44" style="stroke:#C8102E;stroke-width:0.75;stroke-dasharray:none;fill:none;stroke-linecap:butt;opacity:1" data-role="stitch_edge" data-elem-key="224b4a1cdd5e8cf0" data-group-key="stitch_edge|#e02020|none|1.0|false"/>
  </g>
  <g id="role-stitch_thru" data-role="stitch_thru">
    <path d="M 177.34 171.76 L 238.45 163.44" style="stroke:#C8102E;stroke-width:0.75;stroke-dasharray:3 1.5;fill:none;stroke-linecap:butt;opacity:1" data-role="stitch_thru" data-elem-key="d6e49f0908a16882" data-group-key="stitch_thru|#e02020|none|1.0|true"/>
    <path d="M 162.31 56.19 L 237.64 44.16" style="stroke:#C8102E;stroke-width:0.75;stroke-dasharray:3 1.5;fill:none;stroke-linecap:butt;opacity:1" data-role="stitch_thru" data-elem-key="372fcc3d30b68b04" data-group-key="stitch_thru|#e02020|none|1.0|true"/>
  </g>
  <g id="role-callout_line" data-role="callout_line">
    <path d="M 114.91 103.85 L 132.29 117.53" style="stroke:#333333;stroke-width:0.6;stroke-dasharray:none;fill:none;stroke-linecap:butt;opacity:0.9" data-role="callout_line" data-elem-key="87649031443070d9" data-group-key="callout_line|#1a1a1a|none|0.8|false"/>
  </g>
  <g id="role-label" data-role="label" data-trace-ignore="1">
    <text x="78.4" y="107.1" font-family="Arial, sans-serif" font-size="10.4" fill="#1A1A1A">Elastic</text>
    <text x="78.4" y="119.1" font-family="Arial, sans-serif" font-size="10.4" fill="#1A1A1A">band</text>
    <text x="177.3" y="42.3" font-family="Arial, sans-serif" font-size="12.0" fill="#1A1A1A">Tape</text>
  </g>
</svg>